G04 ================== begin FILE IDENTIFICATION RECORD ==================*
G04 Layout Name:  D:/Work/GitHub/TinyBMS/PCB/TinyBMS-A1.brd*
G04 Film Name:    Drill_Chart*
G04 File Format:  Gerber RS274X*
G04 File Origin:  Cadence Allegro 17.4-S017*
G04 Origin Date:  Tue Nov 22 20:59:20 2022*
G04 *
G04 Layer:  MANUFACTURING/PHOTOPLOT_OUTLINE*
G04 Layer:  MANUFACTURING/NO_GLOSS_ALL*
G04 Layer:  MANUFACTURING/NO_GLOSS_TOP*
G04 Layer:  MANUFACTURING/NO_GLOSS_BOTTOM*
G04 Layer:  MANUFACTURING/NO_GLOSS_INTERNAL*
G04 Layer:  MANUFACTURING/NCDRILL_LEGEND*
G04 Layer:  MANUFACTURING/NCDRILL_FIGURE*
G04 Layer:  MANUFACTURING/PROBE_TOP*
G04 Layer:  MANUFACTURING/PROBE_BOTTOM*
G04 Layer:  MANUFACTURING/AUTOSILK_TOP*
G04 Layer:  MANUFACTURING/AUTOSILK_BOTTOM*
G04 Layer:  MANUFACTURING/NO_PROBE_TOP*
G04 Layer:  MANUFACTURING/NO_PROBE_BOTTOM*
G04 Layer:  MANUFACTURING/XSECTION_CHART*
G04 Layer:  MANUFACTURING/NCLEGEND-1-4*
G04 Layer:  MANUFACTURING/NCLEGEND-1-2*
G04 Layer:  BOARD GEOMETRY/OUTLINE*
G04 Layer:  BOARD GEOMETRY/DIMENSION*
G04 Layer:  BOARD GEOMETRY/DESIGN_OUTLINE*
G04 *
G04 Offset:    (0.0000 0.0000)*
G04 Mirror:    No*
G04 Mode:      Positive*
G04 Rotation:  0*
G04 FullContactRelief:  No*
G04 UndefLineWidth:     0.5000*
G04 ================== end FILE IDENTIFICATION RECORD ====================*
%FSLAX25Y25*MOIN*%
%IR0*IPPOS*OFA0.00000B0.00000*MIA0B0*SFA1.00000B1.00000*%
%AMMACRO22*
1,1,.019685,.003937,0.0*
20,1,.019685,.003937,0.0,-.003937,0.0,0.0*
1,1,.019685,-.003937,0.0*
1,1,.019685,0.0,.003937*
20,1,.019685,0.0,.003937,0.0,-.003937,0.0*
1,1,.019685,0.0,-.003937*
%
%ADD22MACRO22*%
%AMMACRO20*
1,1,.019685,.005906,.005906*
20,1,.019685,.005906,.005906,.005906,-.005906,0.0*
1,1,.019685,.005906,-.005906*
20,1,.019685,.005906,-.005906,-.005906,-.005906,0.0*
1,1,.019685,-.005906,-.005906*
20,1,.019685,-.005906,-.005906,-.005906,.005906,0.0*
1,1,.019685,-.005906,.005906*
20,1,.019685,-.005906,.005906,.005906,.005906,0.0*
1,1,.019685,.005906,.005906*
%
%ADD20MACRO20*%
%AMMACRO24*
1,1,.019685,.029528,0.0*
20,1,.019685,.029528,0.0,0.0,-.029528,0.0*
1,1,.019685,0.0,-.029528*
20,1,.019685,0.0,-.029528,-.029528,0.0,0.0*
1,1,.019685,-.029528,0.0*
20,1,.019685,-.029528,0.0,0.0,.029528,0.0*
1,1,.019685,0.0,.029528*
20,1,.019685,0.0,.029528,.029528,0.0,0.0*
1,1,.019685,.029528,0.0*
%
%ADD24MACRO24*%
%AMMACRO29*
1,1,.019685,-.062992,.102362*
20,1,.019685,-.062992,.102362,.062992,.102362,0.0*
1,1,.019685,.062992,.102362*
20,1,.019685,.062992,.102362,.062992,-.102362,0.0*
1,1,.019685,.062992,-.102362*
20,1,.019685,.062992,-.102362,-.062992,-.102362,0.0*
1,1,.019685,-.062992,-.102362*
20,1,.019685,-.062992,-.102362,-.062992,.102362,0.0*
1,1,.019685,-.062992,.102362*
1,1,.019685,-.052492,-.031496*
20,1,.019685,-.052492,-.031496,-.052492,.031496,0.0*
1,1,.019685,-.052492,.031496*
20,1,.019685,-.052492,.031496,-.026248,.031496,0.0*
1,1,.019685,-.026248,.031496*
20,1,.019685,-.026248,.031496,-.017846,.028346,0.0*
1,1,.019685,-.017846,.028346*
20,1,.019685,-.017846,.028346,-.012598,.024146,0.0*
1,1,.019685,-.012598,.024146*
20,1,.019685,-.012598,.024146,-.0105,.015748,0.0*
1,1,.019685,-.0105,.015748*
20,1,.019685,-.0105,.015748,-.012598,.00735,0.0*
1,1,.019685,-.012598,.00735*
20,1,.019685,-.012598,.00735,-.018898,.002098,0.0*
1,1,.019685,-.018898,.002098*
20,1,.019685,-.018898,.002098,-.026248,-.001051,0.0*
1,1,.019685,-.026248,-.001051*
20,1,.019685,-.026248,-.001051,-.052492,-.001051,0.0*
1,1,.019685,-.052492,-.001051*
1,1,.019685,-.026248,-.001051*
20,1,.019685,-.026248,-.001051,-.0105,-.031496,0.0*
1,1,.019685,-.0105,-.031496*
1,1,.019685,.005252,-.031496*
20,1,.019685,.005252,-.031496,.0315,.031496,0.0*
1,1,.019685,.0315,.031496*
20,1,.019685,.0315,.031496,.057748,-.031496,0.0*
1,1,.019685,.057748,-.031496*
1,1,.019685,.048295,-.009449*
20,1,.019685,.048295,-.009449,.014701,-.009449,0.0*
1,1,.019685,.014701,-.009449*
%
%ADD29MACRO29*%
%AMMACRO17*
1,1,.019685,.062992,.102362*
20,1,.019685,.062992,.102362,.062992,-.102362,0.0*
1,1,.019685,.062992,-.102362*
20,1,.019685,.062992,-.102362,-.062992,-.102362,0.0*
1,1,.019685,-.062992,-.102362*
20,1,.019685,-.062992,-.102362,-.062992,.102362,0.0*
1,1,.019685,-.062992,.102362*
20,1,.019685,-.062992,.102362,.062992,.102362,0.0*
1,1,.019685,.062992,.102362*
1,1,.019685,-.052492,-.031496*
20,1,.019685,-.052492,-.031496,-.052492,.031496,0.0*
1,1,.019685,-.052492,.031496*
20,1,.019685,-.052492,.031496,-.026248,.031496,0.0*
1,1,.019685,-.026248,.031496*
20,1,.019685,-.026248,.031496,-.017846,.028346,0.0*
1,1,.019685,-.017846,.028346*
20,1,.019685,-.017846,.028346,-.012598,.024146,0.0*
1,1,.019685,-.012598,.024146*
20,1,.019685,-.012598,.024146,-.0105,.015748,0.0*
1,1,.019685,-.0105,.015748*
20,1,.019685,-.0105,.015748,-.012598,.00735,0.0*
1,1,.019685,-.012598,.00735*
20,1,.019685,-.012598,.00735,-.018898,.002098,0.0*
1,1,.019685,-.018898,.002098*
20,1,.019685,-.018898,.002098,-.026248,-.001051,0.0*
1,1,.019685,-.026248,-.001051*
20,1,.019685,-.026248,-.001051,-.052492,-.001051,0.0*
1,1,.019685,-.052492,-.001051*
1,1,.019685,-.026248,-.001051*
20,1,.019685,-.026248,-.001051,-.0105,-.031496,0.0*
1,1,.019685,-.0105,-.031496*
1,1,.019685,.005252,-.031496*
20,1,.019685,.005252,-.031496,.0315,.031496,0.0*
1,1,.019685,.0315,.031496*
20,1,.019685,.0315,.031496,.057748,-.031496,0.0*
1,1,.019685,.057748,-.031496*
1,1,.019685,.048295,-.009449*
20,1,.019685,.048295,-.009449,.014701,-.009449,0.0*
1,1,.019685,.014701,-.009449*
%
%ADD17MACRO17*%
%AMMACRO14*
1,1,.019685,0.0,.03937*
20,1,.019685,0.0,.03937,.034095,-.019685,0.0*
1,1,.019685,.034095,-.019685*
20,1,.019685,.034095,-.019685,-.034095,-.019685,0.0*
1,1,.019685,-.034095,-.019685*
20,1,.019685,-.034095,-.019685,0.0,.03937,0.0*
1,1,.019685,0.0,.03937*
%
%ADD14MACRO14*%
%AMMACRO13*
1,1,.019685,-.014764,.044291*
20,1,.019685,-.014764,.044291,.014764,.044291,0.0*
1,1,.019685,.014764,.044291*
20,1,.019685,.014764,.044291,.022455,.043618,0.0*
1,1,.019685,.022455,.043618*
20,1,.019685,.022455,.043618,.029912,.04162,0.0*
1,1,.019685,.029912,.04162*
20,1,.019685,.029912,.04162,.036909,.038357,0.0*
1,1,.019685,.036909,.038357*
20,1,.019685,.036909,.038357,.043234,.033929,0.0*
1,1,.019685,.043234,.033929*
20,1,.019685,.043234,.033929,.048693,.02847,0.0*
1,1,.019685,.048693,.02847*
20,1,.019685,.048693,.02847,.053121,.022146,0.0*
1,1,.019685,.053121,.022146*
20,1,.019685,.053121,.022146,.056384,.015149,0.0*
1,1,.019685,.056384,.015149*
20,1,.019685,.056384,.015149,.058382,.007691,0.0*
1,1,.019685,.058382,.007691*
20,1,.019685,.058382,.007691,.059055,0.0,0.0*
1,1,.019685,.059055,0.0*
20,1,.019685,.059055,0.0,.058382,-.007691,0.0*
1,1,.019685,.058382,-.007691*
20,1,.019685,.058382,-.007691,.056384,-.015149,0.0*
1,1,.019685,.056384,-.015149*
20,1,.019685,.056384,-.015149,.053121,-.022146,0.0*
1,1,.019685,.053121,-.022146*
20,1,.019685,.053121,-.022146,.048693,-.02847,0.0*
1,1,.019685,.048693,-.02847*
20,1,.019685,.048693,-.02847,.043234,-.033929,0.0*
1,1,.019685,.043234,-.033929*
20,1,.019685,.043234,-.033929,.036909,-.038357,0.0*
1,1,.019685,.036909,-.038357*
20,1,.019685,.036909,-.038357,.029912,-.04162,0.0*
1,1,.019685,.029912,-.04162*
20,1,.019685,.029912,-.04162,.022455,-.043618,0.0*
1,1,.019685,.022455,-.043618*
20,1,.019685,.022455,-.043618,.014764,-.044291,0.0*
1,1,.019685,.014764,-.044291*
20,1,.019685,.014764,-.044291,-.014764,-.044291,0.0*
1,1,.019685,-.014764,-.044291*
20,1,.019685,-.014764,-.044291,-.022455,-.043618,0.0*
1,1,.019685,-.022455,-.043618*
20,1,.019685,-.022455,-.043618,-.029912,-.04162,0.0*
1,1,.019685,-.029912,-.04162*
20,1,.019685,-.029912,-.04162,-.036909,-.038357,0.0*
1,1,.019685,-.036909,-.038357*
20,1,.019685,-.036909,-.038357,-.043234,-.033929,0.0*
1,1,.019685,-.043234,-.033929*
20,1,.019685,-.043234,-.033929,-.048693,-.02847,0.0*
1,1,.019685,-.048693,-.02847*
20,1,.019685,-.048693,-.02847,-.053121,-.022146,0.0*
1,1,.019685,-.053121,-.022146*
20,1,.019685,-.053121,-.022146,-.056384,-.015149,0.0*
1,1,.019685,-.056384,-.015149*
20,1,.019685,-.056384,-.015149,-.058382,-.007691,0.0*
1,1,.019685,-.058382,-.007691*
20,1,.019685,-.058382,-.007691,-.059055,0.0,0.0*
1,1,.019685,-.059055,0.0*
20,1,.019685,-.059055,0.0,-.058382,.007691,0.0*
1,1,.019685,-.058382,.007691*
20,1,.019685,-.058382,.007691,-.056384,.015149,0.0*
1,1,.019685,-.056384,.015149*
20,1,.019685,-.056384,.015149,-.053121,.022146,0.0*
1,1,.019685,-.053121,.022146*
20,1,.019685,-.053121,.022146,-.048693,.02847,0.0*
1,1,.019685,-.048693,.02847*
20,1,.019685,-.048693,.02847,-.043234,.033929,0.0*
1,1,.019685,-.043234,.033929*
20,1,.019685,-.043234,.033929,-.036909,.038357,0.0*
1,1,.019685,-.036909,.038357*
20,1,.019685,-.036909,.038357,-.029912,.04162,0.0*
1,1,.019685,-.029912,.04162*
20,1,.019685,-.029912,.04162,-.022455,.043618,0.0*
1,1,.019685,-.022455,.043618*
20,1,.019685,-.022455,.043618,-.014764,.044291,0.0*
1,1,.019685,-.014764,.044291*
%
%ADD13MACRO13*%
%AMMACRO23*
1,1,.019685,0.0,.059055*
20,1,.019685,0.0,.059055,.051143,-.029528,0.0*
1,1,.019685,.051143,-.029528*
20,1,.019685,.051143,-.029528,-.051143,-.029528,0.0*
1,1,.019685,-.051143,-.029528*
20,1,.019685,-.051143,-.029528,0.0,.059055,0.0*
1,1,.019685,0.0,.059055*
%
%ADD23MACRO23*%
%AMMACRO16*
1,1,.019685,0.0,.07874*
20,1,.019685,0.0,.07874,.068191,-.03937,0.0*
1,1,.019685,.068191,-.03937*
20,1,.019685,.068191,-.03937,-.068191,-.03937,0.0*
1,1,.019685,-.068191,-.03937*
20,1,.019685,-.068191,-.03937,0.0,.07874,0.0*
1,1,.019685,0.0,.07874*
%
%ADD16MACRO16*%
%AMMACRO12*
1,1,.019685,0.0,.061024*
20,1,.019685,0.0,.061024,.052848,-.030512,0.0*
1,1,.019685,.052848,-.030512*
20,1,.019685,.052848,-.030512,-.052848,-.030512,0.0*
1,1,.019685,-.052848,-.030512*
20,1,.019685,-.052848,-.030512,0.0,.061024,0.0*
1,1,.019685,0.0,.061024*
%
%ADD12MACRO12*%
%AMMACRO10*
1,1,.019685,0.0,.098425*
20,1,.019685,0.0,.098425,.085239,-.049213,0.0*
1,1,.019685,.085239,-.049213*
20,1,.019685,.085239,-.049213,-.085239,-.049213,0.0*
1,1,.019685,-.085239,-.049213*
20,1,.019685,-.085239,-.049213,0.0,.098425,0.0*
1,1,.019685,0.0,.098425*
%
%ADD10MACRO10*%
%AMMACRO18*
1,1,.019685,0.0,.029528*
20,1,.019685,0.0,.029528,.025572,-.014764,0.0*
1,1,.019685,.025572,-.014764*
20,1,.019685,.025572,-.014764,-.025572,-.014764,0.0*
1,1,.019685,-.025572,-.014764*
20,1,.019685,-.025572,-.014764,0.0,.029528,0.0*
1,1,.019685,0.0,.029528*
%
%ADD18MACRO18*%
%AMMACRO21*
1,1,.019685,0.0,.007874*
20,1,.019685,0.0,.007874,.006819,-.003937,0.0*
1,1,.019685,.006819,-.003937*
20,1,.019685,.006819,-.003937,-.006819,-.003937,0.0*
1,1,.019685,-.006819,-.003937*
20,1,.019685,-.006819,-.003937,0.0,.007874,0.0*
1,1,.019685,0.0,.007874*
%
%ADD21MACRO21*%
%AMMACRO11*
1,1,.019685,-.047244,-.055118*
20,1,.019685,-.047244,-.055118,-.047244,.055118,0.0*
1,1,.019685,-.047244,.055118*
20,1,.019685,-.047244,.055118,-.046526,.063322,0.0*
1,1,.019685,-.046526,.063322*
20,1,.019685,-.046526,.063322,-.044395,.071277,0.0*
1,1,.019685,-.044395,.071277*
20,1,.019685,-.044395,.071277,-.040915,.07874,0.0*
1,1,.019685,-.040915,.07874*
20,1,.019685,-.040915,.07874,-.036191,.085486,0.0*
1,1,.019685,-.036191,.085486*
20,1,.019685,-.036191,.085486,-.030368,.091309,0.0*
1,1,.019685,-.030368,.091309*
20,1,.019685,-.030368,.091309,-.023622,.096033,0.0*
1,1,.019685,-.023622,.096033*
20,1,.019685,-.023622,.096033,-.016158,.099513,0.0*
1,1,.019685,-.016158,.099513*
20,1,.019685,-.016158,.099513,-.008204,.101644,0.0*
1,1,.019685,-.008204,.101644*
20,1,.019685,-.008204,.101644,0.0,.102362,0.0*
1,1,.019685,0.0,.102362*
20,1,.019685,0.0,.102362,.008204,.101644,0.0*
1,1,.019685,.008204,.101644*
20,1,.019685,.008204,.101644,.016158,.099513,0.0*
1,1,.019685,.016158,.099513*
20,1,.019685,.016158,.099513,.023622,.096033,0.0*
1,1,.019685,.023622,.096033*
20,1,.019685,.023622,.096033,.030368,.091309,0.0*
1,1,.019685,.030368,.091309*
20,1,.019685,.030368,.091309,.036191,.085486,0.0*
1,1,.019685,.036191,.085486*
20,1,.019685,.036191,.085486,.040915,.07874,0.0*
1,1,.019685,.040915,.07874*
20,1,.019685,.040915,.07874,.044395,.071277,0.0*
1,1,.019685,.044395,.071277*
20,1,.019685,.044395,.071277,.046526,.063322,0.0*
1,1,.019685,.046526,.063322*
20,1,.019685,.046526,.063322,.047244,.055118,0.0*
1,1,.019685,.047244,.055118*
20,1,.019685,.047244,.055118,.047244,-.055118,0.0*
1,1,.019685,.047244,-.055118*
20,1,.019685,.047244,-.055118,.046526,-.063322,0.0*
1,1,.019685,.046526,-.063322*
20,1,.019685,.046526,-.063322,.044395,-.071277,0.0*
1,1,.019685,.044395,-.071277*
20,1,.019685,.044395,-.071277,.040915,-.07874,0.0*
1,1,.019685,.040915,-.07874*
20,1,.019685,.040915,-.07874,.036191,-.085486,0.0*
1,1,.019685,.036191,-.085486*
20,1,.019685,.036191,-.085486,.030368,-.091309,0.0*
1,1,.019685,.030368,-.091309*
20,1,.019685,.030368,-.091309,.023622,-.096033,0.0*
1,1,.019685,.023622,-.096033*
20,1,.019685,.023622,-.096033,.016158,-.099513,0.0*
1,1,.019685,.016158,-.099513*
20,1,.019685,.016158,-.099513,.008204,-.101644,0.0*
1,1,.019685,.008204,-.101644*
20,1,.019685,.008204,-.101644,0.0,-.102362,0.0*
1,1,.019685,0.0,-.102362*
20,1,.019685,0.0,-.102362,-.008204,-.101644,0.0*
1,1,.019685,-.008204,-.101644*
20,1,.019685,-.008204,-.101644,-.016158,-.099513,0.0*
1,1,.019685,-.016158,-.099513*
20,1,.019685,-.016158,-.099513,-.023622,-.096033,0.0*
1,1,.019685,-.023622,-.096033*
20,1,.019685,-.023622,-.096033,-.030368,-.091309,0.0*
1,1,.019685,-.030368,-.091309*
20,1,.019685,-.030368,-.091309,-.036191,-.085486,0.0*
1,1,.019685,-.036191,-.085486*
20,1,.019685,-.036191,-.085486,-.040915,-.07874,0.0*
1,1,.019685,-.040915,-.07874*
20,1,.019685,-.040915,-.07874,-.044395,-.071277,0.0*
1,1,.019685,-.044395,-.071277*
20,1,.019685,-.044395,-.071277,-.046526,-.063322,0.0*
1,1,.019685,-.046526,-.063322*
20,1,.019685,-.046526,-.063322,-.047244,-.055118,0.0*
1,1,.019685,-.047244,-.055118*
1,1,.019685,-.023622,-.023622*
20,1,.019685,-.023622,-.023622,-.029921,-.022835,0.0*
1,1,.019685,-.029921,-.022835*
20,1,.019685,-.029921,-.022835,-.035433,-.019685,0.0*
1,1,.019685,-.035433,-.019685*
20,1,.019685,-.035433,-.019685,-.040157,-.014961,0.0*
1,1,.019685,-.040157,-.014961*
20,1,.019685,-.040157,-.014961,-.043307,-.009449,0.0*
1,1,.019685,-.043307,-.009449*
20,1,.019685,-.043307,-.009449,-.044882,-.00315,0.0*
1,1,.019685,-.044882,-.00315*
20,1,.019685,-.044882,-.00315,-.044882,.00315,0.0*
1,1,.019685,-.044882,.00315*
20,1,.019685,-.044882,.00315,-.043307,.009449,0.0*
1,1,.019685,-.043307,.009449*
20,1,.019685,-.043307,.009449,-.040157,.014961,0.0*
1,1,.019685,-.040157,.014961*
20,1,.019685,-.040157,.014961,-.035433,.019685,0.0*
1,1,.019685,-.035433,.019685*
20,1,.019685,-.035433,.019685,-.029921,.022835,0.0*
1,1,.019685,-.029921,.022835*
20,1,.019685,-.029921,.022835,-.023622,.023622,0.0*
1,1,.019685,-.023622,.023622*
20,1,.019685,-.023622,.023622,-.017323,.022835,0.0*
1,1,.019685,-.017323,.022835*
20,1,.019685,-.017323,.022835,-.011811,.019685,0.0*
1,1,.019685,-.011811,.019685*
20,1,.019685,-.011811,.019685,-.007087,.014961,0.0*
1,1,.019685,-.007087,.014961*
20,1,.019685,-.007087,.014961,-.003937,.009449,0.0*
1,1,.019685,-.003937,.009449*
20,1,.019685,-.003937,.009449,-.002362,.00315,0.0*
1,1,.019685,-.002362,.00315*
20,1,.019685,-.002362,.00315,-.002362,-.00315,0.0*
1,1,.019685,-.002362,-.00315*
20,1,.019685,-.002362,-.00315,-.003937,-.009449,0.0*
1,1,.019685,-.003937,-.009449*
20,1,.019685,-.003937,-.009449,-.007087,-.014961,0.0*
1,1,.019685,-.007087,-.014961*
20,1,.019685,-.007087,-.014961,-.011811,-.019685,0.0*
1,1,.019685,-.011811,-.019685*
20,1,.019685,-.011811,-.019685,-.017323,-.022835,0.0*
1,1,.019685,-.017323,-.022835*
20,1,.019685,-.017323,-.022835,-.023622,-.023622,0.0*
1,1,.019685,-.023622,-.023622*
1,1,.019685,.003941,-.023622*
20,1,.019685,.003941,-.023622,.023626,.023622,0.0*
1,1,.019685,.023626,.023622*
20,1,.019685,.023626,.023622,.043311,-.023622,0.0*
1,1,.019685,.043311,-.023622*
1,1,.019685,.036224,-.007087*
20,1,.019685,.036224,-.007087,.011028,-.007087,0.0*
1,1,.019685,.011028,-.007087*
%
%ADD11MACRO11*%
%AMMACRO28*
1,1,.019685,0.0,.01378*
20,1,.019685,0.0,.01378,-.011933,.00689,0.0*
1,1,.019685,-.011933,.00689*
20,1,.019685,-.011933,.00689,-.011933,-.00689,0.0*
1,1,.019685,-.011933,-.00689*
20,1,.019685,-.011933,-.00689,0.0,-.01378,0.0*
1,1,.019685,0.0,-.01378*
20,1,.019685,0.0,-.01378,.011933,-.00689,0.0*
1,1,.019685,.011933,-.00689*
20,1,.019685,.011933,-.00689,.011933,.00689,0.0*
1,1,.019685,.011933,.00689*
20,1,.019685,.011933,.00689,0.0,.01378,0.0*
1,1,.019685,0.0,.01378*
%
%ADD28MACRO28*%
%AMMACRO19*
1,1,.019685,0.0,.011811*
20,1,.019685,0.0,.011811,.010229,-.005906,0.0*
1,1,.019685,.010229,-.005906*
20,1,.019685,.010229,-.005906,-.010229,-.005906,0.0*
1,1,.019685,-.010229,-.005906*
20,1,.019685,-.010229,-.005906,0.0,.011811,0.0*
1,1,.019685,0.0,.011811*
%
%ADD19MACRO19*%
%AMMACRO26*
1,1,.019685,.008858,0.0*
20,1,.019685,.008858,0.0,.004429,.007671,0.0*
1,1,.019685,.004429,.007671*
20,1,.019685,.004429,.007671,-.004429,.007671,0.0*
1,1,.019685,-.004429,.007671*
20,1,.019685,-.004429,.007671,-.008858,0.0,0.0*
1,1,.019685,-.008858,0.0*
20,1,.019685,-.008858,0.0,-.004429,-.007671,0.0*
1,1,.019685,-.004429,-.007671*
20,1,.019685,-.004429,-.007671,.004429,-.007671,0.0*
1,1,.019685,.004429,-.007671*
20,1,.019685,.004429,-.007671,.008858,0.0,0.0*
1,1,.019685,.008858,0.0*
%
%ADD26MACRO26*%
%AMMACRO25*
1,1,.019685,0.0,.015748*
20,1,.019685,0.0,.015748,.013638,-.007874,0.0*
1,1,.019685,.013638,-.007874*
20,1,.019685,.013638,-.007874,-.013638,-.007874,0.0*
1,1,.019685,-.013638,-.007874*
20,1,.019685,-.013638,-.007874,0.0,.015748,0.0*
1,1,.019685,0.0,.015748*
%
%ADD25MACRO25*%
%AMMACRO27*
1,1,.019685,0.0,.017717*
20,1,.019685,0.0,.017717,.015343,-.008858,0.0*
1,1,.019685,.015343,-.008858*
20,1,.019685,.015343,-.008858,-.015343,-.008858,0.0*
1,1,.019685,-.015343,-.008858*
20,1,.019685,-.015343,-.008858,0.0,.017717,0.0*
1,1,.019685,0.0,.017717*
%
%ADD27MACRO27*%
%AMMACRO15*
1,1,.019685,.008154,-.019685*
20,1,.019685,.008154,-.019685,-.008154,-.019685,0.0*
1,1,.019685,-.008154,-.019685*
20,1,.019685,-.008154,-.019685,-.019685,-.008154,0.0*
1,1,.019685,-.019685,-.008154*
20,1,.019685,-.019685,-.008154,-.019685,.008154,0.0*
1,1,.019685,-.019685,.008154*
20,1,.019685,-.019685,.008154,-.008154,.019685,0.0*
1,1,.019685,-.008154,.019685*
20,1,.019685,-.008154,.019685,.008154,.019685,0.0*
1,1,.019685,.008154,.019685*
20,1,.019685,.008154,.019685,.019685,.008154,0.0*
1,1,.019685,.019685,.008154*
20,1,.019685,.019685,.008154,.019685,-.008154,0.0*
1,1,.019685,.019685,-.008154*
20,1,.019685,.019685,-.008154,.008154,-.019685,0.0*
1,1,.019685,.008154,-.019685*
%
%ADD15MACRO15*%
%ADD30C,.007874*%
%ADD31C,.005906*%
%ADD32C,.019685*%
G75*
%LPD*%
G75*
G36*
G01X1453441Y37175D02*
Y33592D01*
X1455941D01*
Y-162554D01*
X1453441D01*
Y-166137D01*
X1468441D01*
Y-162554D01*
X1465941D01*
Y33592D01*
X1468441D01*
Y37175D01*
X1453441D01*
G37*
G36*
G01X1433441Y-166137D02*
Y-162554D01*
X1493441D01*
Y-166137D01*
X1433441D01*
G37*
G36*
G01Y-141017D02*
Y-139461D01*
X1493441D01*
Y-141017D01*
X1433441D01*
G37*
G36*
G01Y10499D02*
Y12055D01*
X1493441D01*
Y10499D01*
X1433441D01*
G37*
G36*
G01Y33592D02*
Y37175D01*
X1493441D01*
Y33592D01*
X1433441D01*
G37*
G54D10*
X29528Y-204724D03*
D03*
Y-165354D03*
D03*
Y-72835D03*
D03*
Y-33465D03*
D03*
X94488Y-204724D03*
D03*
Y-165354D03*
D03*
Y-72835D03*
D03*
Y-33465D03*
D03*
X583071Y-204724D03*
D03*
Y-165354D03*
D03*
Y-72835D03*
D03*
Y-33465D03*
D03*
X648031Y-204724D03*
D03*
Y-165354D03*
D03*
Y-72835D03*
D03*
Y-33465D03*
D03*
G54D11*
X29528Y-204724D03*
Y-165354D03*
Y-72835D03*
Y-33465D03*
X94488Y-204724D03*
Y-165354D03*
Y-72835D03*
Y-33465D03*
X583071Y-204724D03*
Y-165354D03*
Y-72835D03*
Y-33465D03*
X648031Y-204724D03*
Y-165354D03*
Y-72835D03*
Y-33465D03*
X788281Y-235366D03*
G54D20*
X305244Y-208071D03*
X295866Y-193504D03*
X303346Y-193516D03*
X307291Y-178307D03*
X290630Y-170945D03*
X303346Y-161626D03*
X304913Y-170945D03*
X304035Y-144886D03*
Y-148764D03*
X316437Y-86024D03*
X309776D03*
X306693Y-83209D03*
Y-50260D03*
X329528Y-202953D03*
X322709Y-208071D03*
X329791D03*
X340311Y-202953D03*
X324016Y-213386D03*
X346850Y-178701D03*
X333071Y-174409D03*
X320846Y-181496D03*
X324409Y-196850D03*
X320846Y-144902D03*
X340327Y-170945D03*
X324378Y-133110D03*
X336677Y-128543D03*
X339669Y-114823D03*
X326181Y-118307D03*
X339669Y-100114D03*
X372350Y-206299D03*
X355209D03*
X357402Y-193701D03*
X370299Y-163701D03*
X369291Y-155118D03*
X351181Y-131346D03*
X363571Y-135630D03*
X364008Y-119039D03*
X353504Y-139331D03*
X358720Y-103504D03*
X362240D03*
X367547Y-95500D03*
Y-100327D03*
X371075Y-95500D03*
Y-100268D03*
X364961Y-83858D03*
X383681Y-223437D03*
X383606Y-210839D03*
X398650Y-223579D03*
X398484Y-210823D03*
X398425Y-206339D03*
Y-218937D03*
X395370Y-176319D03*
X396063Y-197835D03*
X398008Y-188386D03*
X396063Y-193110D03*
X396598Y-181650D03*
X387815Y-143268D03*
X395768Y-161220D03*
X383882Y-143268D03*
X388622Y-158232D03*
X390634Y-151142D03*
X401969Y-134055D03*
X395079Y-138976D03*
X381130Y-127402D03*
X392559Y-103504D03*
X394890Y-89370D03*
X425984Y-210736D03*
X422685Y-161280D03*
X406811Y-158209D03*
X426575Y-157795D03*
X426402Y-95819D03*
X445472Y-200528D03*
X454626Y-202953D03*
X456752Y-181088D03*
X444488Y-161280D03*
X458465Y-125685D03*
X452362Y-118898D03*
X449213Y-122441D03*
X447244Y-99213D03*
X459843Y-85394D03*
X442717Y-92335D03*
X445079Y-70079D03*
X455906Y-52362D03*
X480591Y-193425D03*
X470669Y-191142D03*
X473661Y-197205D03*
X475591Y-175787D03*
X482953Y-178740D03*
X488382D03*
X476181Y-146650D03*
X481803Y-153815D03*
X484252Y-167323D03*
X476067Y-127362D03*
X485433Y-122441D03*
X491811Y-104965D03*
X491630Y-96189D03*
X475197Y-37402D03*
X469083Y-44118D03*
X473335Y-14961D03*
X479134Y-26783D03*
X483071Y-26787D03*
X495008Y-202846D03*
X514319Y-193508D03*
X518835Y-193925D03*
X516142Y-175787D03*
X505118Y-172835D03*
X508780Y-178740D03*
X516142Y-170669D03*
X520079Y-156669D03*
X506359Y-153150D03*
X506299Y-146850D03*
X520079Y-121236D03*
X495276Y-117126D03*
X505906Y-141929D03*
Y-137205D03*
Y-132480D03*
X506299Y-125197D03*
X495138Y-102433D03*
X492299Y-100039D03*
X495276Y-106890D03*
X517898Y-69941D03*
X496937Y-44102D03*
X512638Y-52677D03*
Y-48807D03*
X492807Y-14961D03*
X523894Y-186638D03*
X537043Y-194815D03*
X525709Y-171378D03*
X525307Y-176268D03*
X538083Y-156693D03*
X522728Y-150787D03*
X521260Y-146850D03*
X522728Y-142913D03*
X538083Y-121260D03*
X531642Y-127165D03*
X521260Y-138976D03*
X522728Y-135039D03*
X521260Y-131102D03*
X532024Y-101457D03*
X539055D03*
X538941Y-105272D03*
X531984Y-109287D03*
X535173Y-107350D03*
X538307Y-109386D03*
X535331Y-102724D03*
X537539Y-66555D03*
X548669Y-71850D03*
X548752Y-77638D03*
X548646Y-60039D03*
X548732Y-64764D03*
X534016Y-51008D03*
X537268Y-51098D03*
X538972Y-38996D03*
X539295Y-43421D03*
X525354Y-54528D03*
X526598Y-33654D03*
X525642Y-29315D03*
X530720Y-29146D03*
X534539Y-29181D03*
X788281Y-20406D03*
G54D30*
G01X1413074Y-194444D02*
Y-188144D01*
X1414123D01*
X1414543Y-188459D01*
X1414858Y-188880D01*
X1415121Y-189509D01*
X1415331Y-190244D01*
X1415383Y-191294D01*
X1415331Y-192344D01*
X1415121Y-193079D01*
X1414858Y-193709D01*
X1414543Y-194129D01*
X1414123Y-194444D01*
X1413074D01*
G01X1419215D02*
X1417115D01*
Y-188144D01*
X1419215D01*
G01X1418375Y-191189D02*
X1417115D01*
G01X1421000Y-193604D02*
X1421420Y-194129D01*
X1421893Y-194444D01*
X1422312D01*
X1422732Y-194129D01*
X1423047Y-193604D01*
X1423205Y-192869D01*
X1423100Y-192134D01*
X1422837Y-191504D01*
X1422365Y-191084D01*
X1421735Y-190874D01*
X1421367Y-190454D01*
X1421210Y-189719D01*
X1421315Y-188984D01*
X1421578Y-188459D01*
X1421945Y-188144D01*
X1422312D01*
X1422680Y-188354D01*
X1422995Y-188880D01*
G01X1425409Y-188144D02*
X1426669D01*
G01X1426039D02*
Y-194444D01*
G01X1425409D02*
X1426669D01*
G01X1430291Y-191294D02*
X1431341D01*
Y-193184D01*
X1431026Y-193814D01*
X1430659Y-194234D01*
X1430134Y-194444D01*
X1429609Y-194234D01*
X1429241Y-193814D01*
X1428926Y-193184D01*
X1428717Y-192449D01*
X1428611Y-191609D01*
Y-190874D01*
X1428717Y-190244D01*
X1428926Y-189509D01*
X1429241Y-188880D01*
X1429556Y-188459D01*
X1429976Y-188144D01*
X1430344D01*
X1430764Y-188354D01*
X1431079Y-188774D01*
G01X1432706Y-194444D02*
Y-188144D01*
X1435121Y-194444D01*
Y-188144D01*
G01X1442942Y-188670D02*
X1442627Y-188354D01*
X1442260Y-188144D01*
X1441840D01*
X1441367Y-188459D01*
X1441000Y-188984D01*
X1440737Y-189615D01*
X1440528Y-190664D01*
X1440475Y-191609D01*
X1440580Y-192554D01*
X1440737Y-193184D01*
X1441052Y-193814D01*
X1441420Y-194234D01*
X1441787Y-194444D01*
X1442155D01*
X1442522Y-194234D01*
X1442837Y-193919D01*
X1443100Y-193499D01*
G01X1444674Y-194444D02*
Y-188144D01*
X1445987D01*
X1446407Y-188459D01*
X1446669Y-188880D01*
X1446774Y-189719D01*
X1446669Y-190559D01*
X1446354Y-191084D01*
X1445987Y-191399D01*
X1444674D01*
G01X1445987D02*
X1446774Y-194444D01*
G01X1449661D02*
X1449241Y-194339D01*
X1448874Y-193919D01*
X1448559Y-193289D01*
X1448349Y-192554D01*
X1448244Y-191714D01*
Y-190874D01*
X1448349Y-190034D01*
X1448559Y-189299D01*
X1448874Y-188670D01*
X1449241Y-188250D01*
X1449661Y-188144D01*
X1450081Y-188250D01*
X1450449Y-188670D01*
X1450764Y-189299D01*
X1450974Y-190034D01*
X1451079Y-190874D01*
Y-191714D01*
X1450974Y-192554D01*
X1450764Y-193289D01*
X1450449Y-193919D01*
X1450081Y-194339D01*
X1449661Y-194444D01*
G01X1452496Y-193604D02*
X1452916Y-194129D01*
X1453389Y-194444D01*
X1453808D01*
X1454228Y-194129D01*
X1454543Y-193604D01*
X1454701Y-192869D01*
X1454596Y-192134D01*
X1454333Y-191504D01*
X1453861Y-191084D01*
X1453231Y-190874D01*
X1452863Y-190454D01*
X1452706Y-189719D01*
X1452811Y-188984D01*
X1453074Y-188459D01*
X1453441Y-188144D01*
X1453808D01*
X1454176Y-188354D01*
X1454491Y-188880D01*
G01X1456433Y-193604D02*
X1456853Y-194129D01*
X1457326Y-194444D01*
X1457745D01*
X1458165Y-194129D01*
X1458480Y-193604D01*
X1458638Y-192869D01*
X1458533Y-192134D01*
X1458270Y-191504D01*
X1457798Y-191084D01*
X1457168Y-190874D01*
X1456800Y-190454D01*
X1456643Y-189719D01*
X1456748Y-188984D01*
X1457011Y-188459D01*
X1457378Y-188144D01*
X1457745D01*
X1458113Y-188354D01*
X1458428Y-188880D01*
G01X1464307Y-193604D02*
X1464727Y-194129D01*
X1465200Y-194444D01*
X1465619D01*
X1466039Y-194129D01*
X1466354Y-193604D01*
X1466512Y-192869D01*
X1466407Y-192134D01*
X1466144Y-191504D01*
X1465672Y-191084D01*
X1465042Y-190874D01*
X1464674Y-190454D01*
X1464517Y-189719D01*
X1464622Y-188984D01*
X1464885Y-188459D01*
X1465252Y-188144D01*
X1465619D01*
X1465987Y-188354D01*
X1466302Y-188880D01*
G01X1470396Y-194444D02*
X1468296D01*
Y-188144D01*
X1470396D01*
G01X1469556Y-191189D02*
X1468296D01*
G01X1474438Y-188670D02*
X1474123Y-188354D01*
X1473756Y-188144D01*
X1473336D01*
X1472863Y-188459D01*
X1472496Y-188984D01*
X1472233Y-189615D01*
X1472024Y-190664D01*
X1471971Y-191609D01*
X1472076Y-192554D01*
X1472233Y-193184D01*
X1472548Y-193814D01*
X1472916Y-194234D01*
X1473283Y-194444D01*
X1473651D01*
X1474019Y-194234D01*
X1474333Y-193919D01*
X1474596Y-193499D01*
G01X1477220Y-188144D02*
Y-194444D01*
G01X1476013Y-188144D02*
X1478428D01*
G01X1480528D02*
X1481787D01*
G01X1481157D02*
Y-194444D01*
G01X1480528D02*
X1481787D01*
G01X1485094D02*
X1484674Y-194339D01*
X1484307Y-193919D01*
X1483992Y-193289D01*
X1483782Y-192554D01*
X1483677Y-191714D01*
Y-190874D01*
X1483782Y-190034D01*
X1483992Y-189299D01*
X1484307Y-188670D01*
X1484674Y-188250D01*
X1485094Y-188144D01*
X1485515Y-188250D01*
X1485882Y-188670D01*
X1486197Y-189299D01*
X1486407Y-190034D01*
X1486512Y-190874D01*
Y-191714D01*
X1486407Y-192554D01*
X1486197Y-193289D01*
X1485882Y-193919D01*
X1485515Y-194339D01*
X1485094Y-194444D01*
G01X1487824D02*
Y-188144D01*
X1490239Y-194444D01*
Y-188144D01*
G01X1498060Y-188670D02*
X1497745Y-188354D01*
X1497378Y-188144D01*
X1496958D01*
X1496485Y-188459D01*
X1496118Y-188984D01*
X1495856Y-189615D01*
X1495646Y-190664D01*
X1495593Y-191609D01*
X1495698Y-192554D01*
X1495856Y-193184D01*
X1496170Y-193814D01*
X1496538Y-194234D01*
X1496906Y-194444D01*
X1497273D01*
X1497641Y-194234D01*
X1497956Y-193919D01*
X1498218Y-193499D01*
G01X1499740Y-194444D02*
Y-188144D01*
G01X1501945D02*
Y-194444D01*
G01Y-191294D02*
X1499740D01*
G01X1503467Y-194444D02*
X1504780Y-188144D01*
X1506092Y-194444D01*
G01X1505619Y-192239D02*
X1503940D01*
G01X1507667Y-194444D02*
Y-188144D01*
X1508979D01*
X1509399Y-188459D01*
X1509661Y-188880D01*
X1509767Y-189719D01*
X1509661Y-190559D01*
X1509346Y-191084D01*
X1508979Y-191399D01*
X1507667D01*
G01X1508979D02*
X1509767Y-194444D01*
G01X1512654Y-188144D02*
Y-194444D01*
G01X1511446Y-188144D02*
X1513861D01*
G01X1410685Y-196543D02*
X1413835D01*
G01X1414622D02*
X1417772D01*
G01X1418559D02*
X1421709D01*
G01X1422496D02*
X1425646D01*
G01X1426433D02*
X1429583D01*
G01X1430370D02*
X1433520D01*
G01X1434307D02*
X1437457D01*
G01X1438244D02*
X1441394D01*
G01X1442181D02*
X1445331D01*
G01X1446118D02*
X1449268D01*
G01X1450055D02*
X1453205D01*
G01X1453992D02*
X1457142D01*
G01X1457929D02*
X1461079D01*
G01X1461866D02*
X1465016D01*
G01X1465803D02*
X1468953D01*
G01X1469740D02*
X1472890D01*
G01X1473677D02*
X1476827D01*
G01X1477614D02*
X1480764D01*
G01X1481551D02*
X1484701D01*
G01X1485488D02*
X1488638D01*
G01X1489425D02*
X1492575D01*
G01X1493362D02*
X1496512D01*
G01X1497299D02*
X1500449D01*
G01X1501236D02*
X1504386D01*
G01X1505173D02*
X1508323D01*
G01X1509110D02*
X1512260D01*
G01X1513047D02*
X1516197D01*
G01X1416197Y-199483D02*
Y-205782D01*
G01X1414989Y-199483D02*
X1417404D01*
G01X1420134Y-205782D02*
X1419714Y-205677D01*
X1419346Y-205257D01*
X1419031Y-204628D01*
X1418822Y-203893D01*
X1418717Y-203053D01*
Y-202213D01*
X1418822Y-201373D01*
X1419031Y-200638D01*
X1419346Y-200008D01*
X1419714Y-199588D01*
X1420134Y-199483D01*
X1420554Y-199588D01*
X1420921Y-200008D01*
X1421236Y-200638D01*
X1421446Y-201373D01*
X1421551Y-202213D01*
Y-203053D01*
X1421446Y-203893D01*
X1421236Y-204628D01*
X1420921Y-205257D01*
X1420554Y-205677D01*
X1420134Y-205782D01*
G01X1424071Y-199483D02*
Y-205782D01*
G01X1422863Y-199483D02*
X1425278D01*
G01X1426696Y-205782D02*
X1428008Y-199483D01*
X1429320Y-205782D01*
G01X1428848Y-203578D02*
X1427168D01*
G01X1430895Y-199483D02*
Y-205782D01*
X1432995D01*
G01X1439819Y-199483D02*
Y-205782D01*
G01X1438611Y-199483D02*
X1441026D01*
G01X1442654Y-205782D02*
Y-199483D01*
G01X1444858D02*
Y-205782D01*
G01Y-202633D02*
X1442654D01*
G01X1447063Y-199483D02*
X1448323D01*
G01X1447693D02*
Y-205782D01*
G01X1447063D02*
X1448323D01*
G01X1452785Y-200008D02*
X1452470Y-199693D01*
X1452102Y-199483D01*
X1451682D01*
X1451210Y-199798D01*
X1450843Y-200323D01*
X1450580Y-200953D01*
X1450370Y-202003D01*
X1450318Y-202948D01*
X1450422Y-203893D01*
X1450580Y-204522D01*
X1450895Y-205152D01*
X1451263Y-205572D01*
X1451630Y-205782D01*
X1451997D01*
X1452365Y-205572D01*
X1452680Y-205257D01*
X1452942Y-204838D01*
G01X1454412Y-205782D02*
Y-199483D01*
G01X1456407D02*
X1454412Y-203368D01*
G01X1456722Y-205782D02*
X1455304Y-201583D01*
G01X1458296Y-205782D02*
Y-199483D01*
X1460711Y-205782D01*
Y-199483D01*
G01X1464491Y-205782D02*
X1462391D01*
Y-199483D01*
X1464491D01*
G01X1463651Y-202528D02*
X1462391D01*
G01X1466276Y-204943D02*
X1466696Y-205467D01*
X1467168Y-205782D01*
X1467588D01*
X1468008Y-205467D01*
X1468323Y-204943D01*
X1468480Y-204207D01*
X1468375Y-203473D01*
X1468113Y-202843D01*
X1467641Y-202423D01*
X1467011Y-202213D01*
X1466643Y-201793D01*
X1466485Y-201058D01*
X1466591Y-200323D01*
X1466853Y-199798D01*
X1467220Y-199483D01*
X1467588D01*
X1467956Y-199693D01*
X1468270Y-200218D01*
G01X1470213Y-204943D02*
X1470633Y-205467D01*
X1471105Y-205782D01*
X1471525D01*
X1471945Y-205467D01*
X1472260Y-204943D01*
X1472417Y-204207D01*
X1472312Y-203473D01*
X1472050Y-202843D01*
X1471578Y-202423D01*
X1470948Y-202213D01*
X1470580Y-201793D01*
X1470422Y-201058D01*
X1470528Y-200323D01*
X1470790Y-199798D01*
X1471157Y-199483D01*
X1471525D01*
X1471893Y-199693D01*
X1472207Y-200218D01*
G01X1479189Y-205782D02*
Y-199483D01*
X1478559Y-200743D01*
G01Y-205782D02*
X1479819D01*
G01X1483126Y-205992D02*
X1483021Y-205887D01*
Y-205677D01*
X1483126Y-205572D01*
X1483231Y-205677D01*
Y-205887D01*
X1483126Y-205992D01*
G01X1486170Y-205048D02*
X1486538Y-205572D01*
X1486958Y-205782D01*
X1487378Y-205572D01*
X1487745Y-204943D01*
X1488008Y-203998D01*
X1488113Y-203053D01*
Y-201898D01*
X1488008Y-200953D01*
X1487745Y-200113D01*
X1487430Y-199693D01*
X1487063Y-199483D01*
X1486643Y-199693D01*
X1486328Y-200113D01*
X1486118Y-200743D01*
X1486013Y-201583D01*
X1486118Y-202318D01*
X1486381Y-203053D01*
X1486696Y-203473D01*
X1487063Y-203578D01*
X1487483Y-203368D01*
X1487798Y-202843D01*
X1488113Y-201898D01*
G01X1491000Y-205782D02*
X1491367Y-205677D01*
X1491787Y-205363D01*
X1492050Y-204838D01*
X1492155Y-204102D01*
X1492050Y-203368D01*
X1491735Y-202738D01*
X1491263Y-202423D01*
X1490737D01*
X1490422Y-202213D01*
X1490160Y-201688D01*
X1490055Y-200953D01*
X1490213Y-200218D01*
X1490580Y-199693D01*
X1491000Y-199483D01*
X1491420Y-199693D01*
X1491787Y-200218D01*
X1491945Y-200953D01*
X1491840Y-201688D01*
X1491578Y-202213D01*
X1491263Y-202423D01*
X1490737D01*
X1490265Y-202738D01*
X1489950Y-203368D01*
X1489845Y-204102D01*
X1489950Y-204838D01*
X1490213Y-205363D01*
X1490633Y-205677D01*
X1491000Y-205782D01*
G01X1493940Y-203158D02*
X1494307Y-202423D01*
X1494622Y-202003D01*
X1495042Y-201793D01*
X1495409Y-202003D01*
X1495672Y-202423D01*
X1495882Y-203053D01*
X1495934Y-203787D01*
X1495882Y-204418D01*
X1495672Y-205048D01*
X1495357Y-205572D01*
X1494989Y-205782D01*
X1494570Y-205572D01*
X1494202Y-204943D01*
X1493992Y-203998D01*
X1493940Y-202948D01*
X1494044Y-201583D01*
X1494202Y-200848D01*
X1494465Y-200113D01*
X1494832Y-199588D01*
X1495200Y-199483D01*
X1495567Y-199693D01*
X1495830Y-200218D01*
G01X1497877Y-200533D02*
X1498192Y-199903D01*
X1498559Y-199588D01*
X1498979Y-199483D01*
X1499504Y-199693D01*
X1499871Y-200218D01*
X1499976Y-200848D01*
X1499924Y-201478D01*
X1499714Y-202003D01*
X1498664Y-203053D01*
X1498192Y-203787D01*
X1497877Y-204838D01*
X1497772Y-205782D01*
X1499976D01*
G01X1505383D02*
Y-199483D01*
X1506748Y-204732D01*
X1508113Y-199483D01*
Y-205782D01*
G01X1509320D02*
Y-199483D01*
X1510685Y-204732D01*
X1512050Y-199483D01*
Y-205782D01*
G01X1460941Y45049D02*
X1454642D01*
X1455902Y44419D01*
G01X1460941D02*
Y45679D01*
G01X1458841Y48304D02*
Y49668D01*
G01X1460941Y53553D02*
X1454642D01*
X1459156Y51611D01*
Y54235D01*
G01X1497903Y-164654D02*
Y-170953D01*
X1500003D01*
G01X1503520D02*
Y-164654D01*
X1501578Y-169169D01*
X1504202D01*
G01X1511184Y-167594D02*
X1511394Y-167279D01*
X1511551Y-166754D01*
X1511656Y-166019D01*
X1511551Y-165389D01*
X1511341Y-164969D01*
X1510974Y-164654D01*
X1509556D01*
Y-170953D01*
X1511289D01*
X1511656Y-170533D01*
X1511866Y-169903D01*
X1511971Y-169169D01*
X1511866Y-168433D01*
X1511551Y-167804D01*
X1511184Y-167594D01*
X1509556D01*
G01X1514701Y-170953D02*
X1514281Y-170848D01*
X1513913Y-170428D01*
X1513598Y-169798D01*
X1513389Y-169063D01*
X1513283Y-168224D01*
Y-167383D01*
X1513389Y-166544D01*
X1513598Y-165809D01*
X1513913Y-165179D01*
X1514281Y-164759D01*
X1514701Y-164654D01*
X1515121Y-164759D01*
X1515488Y-165179D01*
X1515803Y-165809D01*
X1516013Y-166544D01*
X1516118Y-167383D01*
Y-168224D01*
X1516013Y-169063D01*
X1515803Y-169798D01*
X1515488Y-170428D01*
X1515121Y-170848D01*
X1514701Y-170953D01*
G01X1518638Y-164654D02*
Y-170953D01*
G01X1517430Y-164654D02*
X1519845D01*
G01X1522575D02*
Y-170953D01*
G01X1521367Y-164654D02*
X1523782D01*
G01X1526512Y-170953D02*
X1526092Y-170848D01*
X1525724Y-170428D01*
X1525409Y-169798D01*
X1525200Y-169063D01*
X1525094Y-168224D01*
Y-167383D01*
X1525200Y-166544D01*
X1525409Y-165809D01*
X1525724Y-165179D01*
X1526092Y-164759D01*
X1526512Y-164654D01*
X1526932Y-164759D01*
X1527299Y-165179D01*
X1527614Y-165809D01*
X1527824Y-166544D01*
X1527929Y-167383D01*
Y-168224D01*
X1527824Y-169063D01*
X1527614Y-169798D01*
X1527299Y-170428D01*
X1526932Y-170848D01*
X1526512Y-170953D01*
G01X1529084D02*
Y-164654D01*
X1530449Y-169903D01*
X1531814Y-164654D01*
Y-170953D01*
G01X1539478Y-165179D02*
X1539163Y-164864D01*
X1538795Y-164654D01*
X1538375D01*
X1537903Y-164969D01*
X1537535Y-165494D01*
X1537273Y-166124D01*
X1537063Y-167174D01*
X1537011Y-168119D01*
X1537115Y-169063D01*
X1537273Y-169693D01*
X1537588Y-170323D01*
X1537956Y-170743D01*
X1538323Y-170953D01*
X1538690D01*
X1539058Y-170743D01*
X1539373Y-170428D01*
X1539635Y-170009D01*
G01X1542260Y-170953D02*
X1541840Y-170848D01*
X1541472Y-170428D01*
X1541157Y-169798D01*
X1540948Y-169063D01*
X1540843Y-168224D01*
Y-167383D01*
X1540948Y-166544D01*
X1541157Y-165809D01*
X1541472Y-165179D01*
X1541840Y-164759D01*
X1542260Y-164654D01*
X1542680Y-164759D01*
X1543047Y-165179D01*
X1543362Y-165809D01*
X1543572Y-166544D01*
X1543677Y-167383D01*
Y-168224D01*
X1543572Y-169063D01*
X1543362Y-169798D01*
X1543047Y-170428D01*
X1542680Y-170848D01*
X1542260Y-170953D01*
G01X1544989D02*
Y-164654D01*
X1547404Y-170953D01*
Y-164654D01*
G01X1548979Y-170953D02*
Y-164654D01*
X1550029D01*
X1550449Y-164969D01*
X1550764Y-165389D01*
X1551026Y-166019D01*
X1551236Y-166754D01*
X1551289Y-167804D01*
X1551236Y-168854D01*
X1551026Y-169589D01*
X1550764Y-170219D01*
X1550449Y-170638D01*
X1550029Y-170953D01*
X1548979D01*
G01X1552916Y-164654D02*
Y-169169D01*
X1553126Y-170113D01*
X1553546Y-170743D01*
X1554071Y-170953D01*
X1554596Y-170743D01*
X1555016Y-170113D01*
X1555226Y-169169D01*
Y-164654D01*
G01X1559163Y-165179D02*
X1558848Y-164864D01*
X1558480Y-164654D01*
X1558060D01*
X1557588Y-164969D01*
X1557220Y-165494D01*
X1556958Y-166124D01*
X1556748Y-167174D01*
X1556696Y-168119D01*
X1556800Y-169063D01*
X1556958Y-169693D01*
X1557273Y-170323D01*
X1557641Y-170743D01*
X1558008Y-170953D01*
X1558375D01*
X1558743Y-170743D01*
X1559058Y-170428D01*
X1559320Y-170009D01*
G01X1561945Y-164654D02*
Y-170953D01*
G01X1560737Y-164654D02*
X1563152D01*
G01X1565882Y-170953D02*
X1565462Y-170848D01*
X1565094Y-170428D01*
X1564780Y-169798D01*
X1564570Y-169063D01*
X1564465Y-168224D01*
Y-167383D01*
X1564570Y-166544D01*
X1564780Y-165809D01*
X1565094Y-165179D01*
X1565462Y-164759D01*
X1565882Y-164654D01*
X1566302Y-164759D01*
X1566669Y-165179D01*
X1566984Y-165809D01*
X1567194Y-166544D01*
X1567299Y-167383D01*
Y-168224D01*
X1567194Y-169063D01*
X1566984Y-169798D01*
X1566669Y-170428D01*
X1566302Y-170848D01*
X1565882Y-170953D01*
G01X1568769D02*
Y-164654D01*
X1570081D01*
X1570501Y-164969D01*
X1570764Y-165389D01*
X1570869Y-166229D01*
X1570764Y-167069D01*
X1570449Y-167594D01*
X1570081Y-167909D01*
X1568769D01*
G01X1570081D02*
X1570869Y-170953D01*
G01X1505672Y-179562D02*
X1507981Y-174943D01*
G01X1506827Y-174103D02*
Y-180402D01*
G01X1507981Y-179562D02*
X1505672Y-174943D01*
G01X1505252Y-177252D02*
X1508402D01*
G01X1517535Y-178512D02*
X1517956Y-179037D01*
X1518428Y-179352D01*
X1518848D01*
X1519268Y-179037D01*
X1519583Y-178512D01*
X1519740Y-177777D01*
X1519635Y-177043D01*
X1519373Y-176412D01*
X1518900Y-175993D01*
X1518270Y-175782D01*
X1517903Y-175363D01*
X1517745Y-174628D01*
X1517850Y-173893D01*
X1518113Y-173368D01*
X1518480Y-173053D01*
X1518848D01*
X1519215Y-173263D01*
X1519530Y-173788D01*
G01X1521420Y-173053D02*
Y-177567D01*
X1521630Y-178512D01*
X1522050Y-179142D01*
X1522575Y-179352D01*
X1523100Y-179142D01*
X1523520Y-178512D01*
X1523730Y-177567D01*
Y-173053D01*
G01X1525462Y-179352D02*
Y-173053D01*
X1526774D01*
X1527194Y-173368D01*
X1527457Y-173788D01*
X1527562Y-174628D01*
X1527457Y-175467D01*
X1527142Y-175993D01*
X1526774Y-176307D01*
X1525462D01*
G01X1526774D02*
X1527562Y-179352D01*
G01X1529452D02*
Y-173053D01*
X1531446D01*
G01X1530711Y-176097D02*
X1529452D01*
G01X1533074Y-179352D02*
X1534386Y-173053D01*
X1535698Y-179352D01*
G01X1535226Y-177147D02*
X1533546D01*
G01X1539478Y-173578D02*
X1539163Y-173263D01*
X1538795Y-173053D01*
X1538375D01*
X1537903Y-173368D01*
X1537535Y-173893D01*
X1537273Y-174523D01*
X1537063Y-175572D01*
X1537011Y-176517D01*
X1537115Y-177462D01*
X1537273Y-178092D01*
X1537588Y-178722D01*
X1537956Y-179142D01*
X1538323Y-179352D01*
X1538690D01*
X1539058Y-179142D01*
X1539373Y-178827D01*
X1539635Y-178407D01*
G01X1543310Y-179352D02*
X1541210D01*
Y-173053D01*
X1543310D01*
G01X1542470Y-176097D02*
X1541210D01*
G01X1497903Y-141561D02*
Y-147860D01*
X1500003D01*
G01X1501735Y-146600D02*
X1502050Y-147335D01*
X1502470Y-147755D01*
X1502942Y-147860D01*
X1503362Y-147755D01*
X1503782Y-147230D01*
X1504044Y-146600D01*
X1504097Y-145970D01*
X1503992Y-145236D01*
X1503625Y-144711D01*
X1503257Y-144501D01*
X1502785D01*
G01X1503257D02*
X1503572Y-144186D01*
X1503835Y-143661D01*
X1503940Y-143031D01*
X1503835Y-142401D01*
X1503572Y-141876D01*
X1503100Y-141561D01*
X1502627Y-141666D01*
X1502155Y-142086D01*
G01X1509452Y-141561D02*
X1510764Y-147860D01*
X1512076Y-141561D01*
G01X1515856Y-142086D02*
X1515541Y-141771D01*
X1515173Y-141561D01*
X1514753D01*
X1514281Y-141876D01*
X1513913Y-142401D01*
X1513651Y-143031D01*
X1513441Y-144081D01*
X1513389Y-145026D01*
X1513493Y-145970D01*
X1513651Y-146600D01*
X1513966Y-147230D01*
X1514333Y-147650D01*
X1514701Y-147860D01*
X1515068D01*
X1515436Y-147650D01*
X1515751Y-147335D01*
X1516013Y-146916D01*
G01X1519793Y-142086D02*
X1519478Y-141771D01*
X1519110Y-141561D01*
X1518690D01*
X1518218Y-141876D01*
X1517850Y-142401D01*
X1517588Y-143031D01*
X1517378Y-144081D01*
X1517326Y-145026D01*
X1517430Y-145970D01*
X1517588Y-146600D01*
X1517903Y-147230D01*
X1518270Y-147650D01*
X1518638Y-147860D01*
X1519005D01*
X1519373Y-147650D01*
X1519688Y-147335D01*
X1519950Y-146916D01*
G01X1527667Y-142086D02*
X1527352Y-141771D01*
X1526984Y-141561D01*
X1526564D01*
X1526092Y-141876D01*
X1525724Y-142401D01*
X1525462Y-143031D01*
X1525252Y-144081D01*
X1525200Y-145026D01*
X1525304Y-145970D01*
X1525462Y-146600D01*
X1525777Y-147230D01*
X1526144Y-147650D01*
X1526512Y-147860D01*
X1526879D01*
X1527247Y-147650D01*
X1527562Y-147335D01*
X1527824Y-146916D01*
G01X1530449Y-147860D02*
X1530029Y-147755D01*
X1529661Y-147335D01*
X1529346Y-146706D01*
X1529137Y-145970D01*
X1529031Y-145131D01*
Y-144291D01*
X1529137Y-143451D01*
X1529346Y-142716D01*
X1529661Y-142086D01*
X1530029Y-141666D01*
X1530449Y-141561D01*
X1530869Y-141666D01*
X1531236Y-142086D01*
X1531551Y-142716D01*
X1531761Y-143451D01*
X1531866Y-144291D01*
Y-145131D01*
X1531761Y-145970D01*
X1531551Y-146706D01*
X1531236Y-147335D01*
X1530869Y-147755D01*
X1530449Y-147860D01*
G01X1533178D02*
Y-141561D01*
X1535593Y-147860D01*
Y-141561D01*
G01X1537168Y-147860D02*
Y-141561D01*
X1538218D01*
X1538638Y-141876D01*
X1538953Y-142296D01*
X1539215Y-142926D01*
X1539425Y-143661D01*
X1539478Y-144711D01*
X1539425Y-145761D01*
X1539215Y-146496D01*
X1538953Y-147126D01*
X1538638Y-147545D01*
X1538218Y-147860D01*
X1537168D01*
G01X1541105Y-141561D02*
Y-146076D01*
X1541315Y-147020D01*
X1541735Y-147650D01*
X1542260Y-147860D01*
X1542785Y-147650D01*
X1543205Y-147020D01*
X1543415Y-146076D01*
Y-141561D01*
G01X1547352Y-142086D02*
X1547037Y-141771D01*
X1546669Y-141561D01*
X1546249D01*
X1545777Y-141876D01*
X1545409Y-142401D01*
X1545147Y-143031D01*
X1544937Y-144081D01*
X1544885Y-145026D01*
X1544989Y-145970D01*
X1545147Y-146600D01*
X1545462Y-147230D01*
X1545830Y-147650D01*
X1546197Y-147860D01*
X1546564D01*
X1546932Y-147650D01*
X1547247Y-147335D01*
X1547509Y-146916D01*
G01X1550134Y-141561D02*
Y-147860D01*
G01X1548926Y-141561D02*
X1551341D01*
G01X1554071Y-147860D02*
X1553651Y-147755D01*
X1553283Y-147335D01*
X1552969Y-146706D01*
X1552759Y-145970D01*
X1552654Y-145131D01*
Y-144291D01*
X1552759Y-143451D01*
X1552969Y-142716D01*
X1553283Y-142086D01*
X1553651Y-141666D01*
X1554071Y-141561D01*
X1554491Y-141666D01*
X1554858Y-142086D01*
X1555173Y-142716D01*
X1555383Y-143451D01*
X1555488Y-144291D01*
Y-145131D01*
X1555383Y-145970D01*
X1555173Y-146706D01*
X1554858Y-147335D01*
X1554491Y-147755D01*
X1554071Y-147860D01*
G01X1556958D02*
Y-141561D01*
X1558270D01*
X1558690Y-141876D01*
X1558953Y-142296D01*
X1559058Y-143136D01*
X1558953Y-143976D01*
X1558638Y-144501D01*
X1558270Y-144816D01*
X1556958D01*
G01X1558270D02*
X1559058Y-147860D01*
G01X1505672Y-156469D02*
X1507981Y-151850D01*
G01X1506827Y-151010D02*
Y-157309D01*
G01X1507981Y-156469D02*
X1505672Y-151850D01*
G01X1505252Y-154159D02*
X1508402D01*
G01X1517483Y-156259D02*
Y-149960D01*
X1518533D01*
X1518953Y-150275D01*
X1519268Y-150695D01*
X1519530Y-151324D01*
X1519740Y-152060D01*
X1519793Y-153109D01*
X1519740Y-154159D01*
X1519530Y-154894D01*
X1519268Y-155524D01*
X1518953Y-155944D01*
X1518533Y-156259D01*
X1517483D01*
G01X1521945Y-149960D02*
X1523205D01*
G01X1522575D02*
Y-156259D01*
G01X1521945D02*
X1523205D01*
G01X1527562D02*
X1525462D01*
Y-149960D01*
X1527562D01*
G01X1526722Y-153004D02*
X1525462D01*
G01X1529399Y-149960D02*
Y-156259D01*
X1531499D01*
G01X1535436D02*
X1533336D01*
Y-149960D01*
X1535436D01*
G01X1534596Y-153004D02*
X1533336D01*
G01X1539478Y-150485D02*
X1539163Y-150170D01*
X1538795Y-149960D01*
X1538375D01*
X1537903Y-150275D01*
X1537535Y-150800D01*
X1537273Y-151430D01*
X1537063Y-152480D01*
X1537011Y-153424D01*
X1537115Y-154369D01*
X1537273Y-154999D01*
X1537588Y-155629D01*
X1537956Y-156049D01*
X1538323Y-156259D01*
X1538690D01*
X1539058Y-156049D01*
X1539373Y-155734D01*
X1539635Y-155315D01*
G01X1542260Y-149960D02*
Y-156259D01*
G01X1541052Y-149960D02*
X1543467D01*
G01X1545147Y-156259D02*
Y-149960D01*
X1546459D01*
X1546879Y-150275D01*
X1547142Y-150695D01*
X1547247Y-151535D01*
X1547142Y-152374D01*
X1546827Y-152900D01*
X1546459Y-153215D01*
X1545147D01*
G01X1546459D02*
X1547247Y-156259D01*
G01X1549504Y-149960D02*
X1550764D01*
G01X1550134D02*
Y-156259D01*
G01X1549504D02*
X1550764D01*
G01X1555226Y-150485D02*
X1554911Y-150170D01*
X1554543Y-149960D01*
X1554123D01*
X1553651Y-150275D01*
X1553283Y-150800D01*
X1553021Y-151430D01*
X1552811Y-152480D01*
X1552759Y-153424D01*
X1552863Y-154369D01*
X1553021Y-154999D01*
X1553336Y-155629D01*
X1553704Y-156049D01*
X1554071Y-156259D01*
X1554438D01*
X1554806Y-156049D01*
X1555121Y-155734D01*
X1555383Y-155315D01*
G01X1505672Y-64691D02*
X1507981Y-60072D01*
G01X1506827Y-59232D02*
Y-65531D01*
G01X1507981Y-64691D02*
X1505672Y-60072D01*
G01X1505252Y-62381D02*
X1508402D01*
G01X1517483Y-64481D02*
Y-58182D01*
X1518533D01*
X1518953Y-58497D01*
X1519268Y-58917D01*
X1519530Y-59546D01*
X1519740Y-60282D01*
X1519793Y-61331D01*
X1519740Y-62381D01*
X1519530Y-63117D01*
X1519268Y-63746D01*
X1518953Y-64166D01*
X1518533Y-64481D01*
X1517483D01*
G01X1521945Y-58182D02*
X1523205D01*
G01X1522575D02*
Y-64481D01*
G01X1521945D02*
X1523205D01*
G01X1527562D02*
X1525462D01*
Y-58182D01*
X1527562D01*
G01X1526722Y-61226D02*
X1525462D01*
G01X1529399Y-58182D02*
Y-64481D01*
X1531499D01*
G01X1535436D02*
X1533336D01*
Y-58182D01*
X1535436D01*
G01X1534596Y-61226D02*
X1533336D01*
G01X1539478Y-58707D02*
X1539163Y-58392D01*
X1538795Y-58182D01*
X1538375D01*
X1537903Y-58497D01*
X1537535Y-59022D01*
X1537273Y-59652D01*
X1537063Y-60702D01*
X1537011Y-61646D01*
X1537115Y-62591D01*
X1537273Y-63221D01*
X1537588Y-63851D01*
X1537956Y-64271D01*
X1538323Y-64481D01*
X1538690D01*
X1539058Y-64271D01*
X1539373Y-63956D01*
X1539635Y-63537D01*
G01X1542260Y-58182D02*
Y-64481D01*
G01X1541052Y-58182D02*
X1543467D01*
G01X1545147Y-64481D02*
Y-58182D01*
X1546459D01*
X1546879Y-58497D01*
X1547142Y-58917D01*
X1547247Y-59757D01*
X1547142Y-60596D01*
X1546827Y-61122D01*
X1546459Y-61437D01*
X1545147D01*
G01X1546459D02*
X1547247Y-64481D01*
G01X1549504Y-58182D02*
X1550764D01*
G01X1550134D02*
Y-64481D01*
G01X1549504D02*
X1550764D01*
G01X1555226Y-58707D02*
X1554911Y-58392D01*
X1554543Y-58182D01*
X1554123D01*
X1553651Y-58497D01*
X1553283Y-59022D01*
X1553021Y-59652D01*
X1552811Y-60702D01*
X1552759Y-61646D01*
X1552863Y-62591D01*
X1553021Y-63221D01*
X1553336Y-63851D01*
X1553704Y-64271D01*
X1554071Y-64481D01*
X1554438D01*
X1554806Y-64271D01*
X1555121Y-63956D01*
X1555383Y-63537D01*
G01X1497903Y35075D02*
Y28776D01*
X1500003D01*
G01X1502890D02*
Y35075D01*
X1502260Y33815D01*
G01Y28776D02*
X1503520D01*
G01X1510764Y35075D02*
Y28776D01*
G01X1509556Y35075D02*
X1511971D01*
G01X1514701Y28776D02*
X1514281Y28881D01*
X1513913Y29301D01*
X1513598Y29931D01*
X1513389Y30666D01*
X1513283Y31506D01*
Y32346D01*
X1513389Y33185D01*
X1513598Y33920D01*
X1513913Y34550D01*
X1514281Y34970D01*
X1514701Y35075D01*
X1515121Y34970D01*
X1515488Y34550D01*
X1515803Y33920D01*
X1516013Y33185D01*
X1516118Y32346D01*
Y31506D01*
X1516013Y30666D01*
X1515803Y29931D01*
X1515488Y29301D01*
X1515121Y28881D01*
X1514701Y28776D01*
G01X1517588D02*
Y35075D01*
X1518848D01*
X1519268Y34760D01*
X1519583Y34025D01*
X1519688Y33185D01*
X1519583Y32346D01*
X1519320Y31716D01*
X1518848Y31400D01*
X1517588D01*
G01X1527667Y34550D02*
X1527352Y34865D01*
X1526984Y35075D01*
X1526564D01*
X1526092Y34760D01*
X1525724Y34235D01*
X1525462Y33605D01*
X1525252Y32556D01*
X1525200Y31611D01*
X1525304Y30666D01*
X1525462Y30036D01*
X1525777Y29406D01*
X1526144Y28986D01*
X1526512Y28776D01*
X1526879D01*
X1527247Y28986D01*
X1527562Y29301D01*
X1527824Y29720D01*
G01X1530449Y28776D02*
X1530029Y28881D01*
X1529661Y29301D01*
X1529346Y29931D01*
X1529137Y30666D01*
X1529031Y31506D01*
Y32346D01*
X1529137Y33185D01*
X1529346Y33920D01*
X1529661Y34550D01*
X1530029Y34970D01*
X1530449Y35075D01*
X1530869Y34970D01*
X1531236Y34550D01*
X1531551Y33920D01*
X1531761Y33185D01*
X1531866Y32346D01*
Y31506D01*
X1531761Y30666D01*
X1531551Y29931D01*
X1531236Y29301D01*
X1530869Y28881D01*
X1530449Y28776D01*
G01X1533178D02*
Y35075D01*
X1535593Y28776D01*
Y35075D01*
G01X1537168Y28776D02*
Y35075D01*
X1538218D01*
X1538638Y34760D01*
X1538953Y34340D01*
X1539215Y33711D01*
X1539425Y32975D01*
X1539478Y31926D01*
X1539425Y30876D01*
X1539215Y30141D01*
X1538953Y29511D01*
X1538638Y29091D01*
X1538218Y28776D01*
X1537168D01*
G01X1541105Y35075D02*
Y30561D01*
X1541315Y29616D01*
X1541735Y28986D01*
X1542260Y28776D01*
X1542785Y28986D01*
X1543205Y29616D01*
X1543415Y30561D01*
Y35075D01*
G01X1547352Y34550D02*
X1547037Y34865D01*
X1546669Y35075D01*
X1546249D01*
X1545777Y34760D01*
X1545409Y34235D01*
X1545147Y33605D01*
X1544937Y32556D01*
X1544885Y31611D01*
X1544989Y30666D01*
X1545147Y30036D01*
X1545462Y29406D01*
X1545830Y28986D01*
X1546197Y28776D01*
X1546564D01*
X1546932Y28986D01*
X1547247Y29301D01*
X1547509Y29720D01*
G01X1550134Y35075D02*
Y28776D01*
G01X1548926Y35075D02*
X1551341D01*
G01X1554071Y28776D02*
X1553651Y28881D01*
X1553283Y29301D01*
X1552969Y29931D01*
X1552759Y30666D01*
X1552654Y31506D01*
Y32346D01*
X1552759Y33185D01*
X1552969Y33920D01*
X1553283Y34550D01*
X1553651Y34970D01*
X1554071Y35075D01*
X1554491Y34970D01*
X1554858Y34550D01*
X1555173Y33920D01*
X1555383Y33185D01*
X1555488Y32346D01*
Y31506D01*
X1555383Y30666D01*
X1555173Y29931D01*
X1554858Y29301D01*
X1554491Y28881D01*
X1554071Y28776D01*
G01X1556958D02*
Y35075D01*
X1558270D01*
X1558690Y34760D01*
X1558953Y34340D01*
X1559058Y33500D01*
X1558953Y32661D01*
X1558638Y32135D01*
X1558270Y31820D01*
X1556958D01*
G01X1558270D02*
X1559058Y28776D01*
G01X1505672Y20167D02*
X1507981Y24787D01*
G01X1506827Y25626D02*
Y19327D01*
G01X1507981Y20167D02*
X1505672Y24787D01*
G01X1505252Y22477D02*
X1508402D01*
G01X1517483Y20377D02*
Y26676D01*
X1518533D01*
X1518953Y26361D01*
X1519268Y25941D01*
X1519530Y25312D01*
X1519740Y24576D01*
X1519793Y23527D01*
X1519740Y22477D01*
X1519530Y21742D01*
X1519268Y21112D01*
X1518953Y20692D01*
X1518533Y20377D01*
X1517483D01*
G01X1521945Y26676D02*
X1523205D01*
G01X1522575D02*
Y20377D01*
G01X1521945D02*
X1523205D01*
G01X1527562D02*
X1525462D01*
Y26676D01*
X1527562D01*
G01X1526722Y23632D02*
X1525462D01*
G01X1529399Y26676D02*
Y20377D01*
X1531499D01*
G01X1535436D02*
X1533336D01*
Y26676D01*
X1535436D01*
G01X1534596Y23632D02*
X1533336D01*
G01X1539478Y26151D02*
X1539163Y26467D01*
X1538795Y26676D01*
X1538375D01*
X1537903Y26361D01*
X1537535Y25837D01*
X1537273Y25206D01*
X1537063Y24157D01*
X1537011Y23212D01*
X1537115Y22267D01*
X1537273Y21637D01*
X1537588Y21007D01*
X1537956Y20587D01*
X1538323Y20377D01*
X1538690D01*
X1539058Y20587D01*
X1539373Y20902D01*
X1539635Y21322D01*
G01X1542260Y26676D02*
Y20377D01*
G01X1541052Y26676D02*
X1543467D01*
G01X1545147Y20377D02*
Y26676D01*
X1546459D01*
X1546879Y26361D01*
X1547142Y25941D01*
X1547247Y25102D01*
X1547142Y24262D01*
X1546827Y23737D01*
X1546459Y23422D01*
X1545147D01*
G01X1546459D02*
X1547247Y20377D01*
G01X1549504Y26676D02*
X1550764D01*
G01X1550134D02*
Y20377D01*
G01X1549504D02*
X1550764D01*
G01X1555226Y26151D02*
X1554911Y26467D01*
X1554543Y26676D01*
X1554123D01*
X1553651Y26361D01*
X1553283Y25837D01*
X1553021Y25206D01*
X1552811Y24157D01*
X1552759Y23212D01*
X1552863Y22267D01*
X1553021Y21637D01*
X1553336Y21007D01*
X1553704Y20587D01*
X1554071Y20377D01*
X1554438D01*
X1554806Y20587D01*
X1555121Y20902D01*
X1555383Y21322D01*
G01X1497903Y9956D02*
Y3656D01*
X1500003D01*
G01X1501893Y8906D02*
X1502207Y9535D01*
X1502575Y9850D01*
X1502995Y9956D01*
X1503520Y9746D01*
X1503887Y9220D01*
X1503992Y8591D01*
X1503940Y7961D01*
X1503730Y7436D01*
X1502680Y6386D01*
X1502207Y5651D01*
X1501893Y4601D01*
X1501787Y3656D01*
X1503992D01*
G01X1511079Y6806D02*
X1512129D01*
Y4916D01*
X1511814Y4286D01*
X1511446Y3866D01*
X1510921Y3656D01*
X1510396Y3866D01*
X1510029Y4286D01*
X1509714Y4916D01*
X1509504Y5651D01*
X1509399Y6491D01*
Y7226D01*
X1509504Y7856D01*
X1509714Y8591D01*
X1510029Y9220D01*
X1510344Y9641D01*
X1510764Y9956D01*
X1511131D01*
X1511551Y9746D01*
X1511866Y9326D01*
G01X1513493Y3656D02*
Y9956D01*
X1515908Y3656D01*
Y9956D01*
G01X1517483Y3656D02*
Y9956D01*
X1518533D01*
X1518953Y9641D01*
X1519268Y9220D01*
X1519530Y8591D01*
X1519740Y7856D01*
X1519793Y6806D01*
X1519740Y5756D01*
X1519530Y5021D01*
X1519268Y4391D01*
X1518953Y3971D01*
X1518533Y3656D01*
X1517483D01*
G01X1527667Y9430D02*
X1527352Y9746D01*
X1526984Y9956D01*
X1526564D01*
X1526092Y9641D01*
X1525724Y9116D01*
X1525462Y8485D01*
X1525252Y7436D01*
X1525200Y6491D01*
X1525304Y5546D01*
X1525462Y4916D01*
X1525777Y4286D01*
X1526144Y3866D01*
X1526512Y3656D01*
X1526879D01*
X1527247Y3866D01*
X1527562Y4181D01*
X1527824Y4601D01*
G01X1530449Y3656D02*
X1530029Y3761D01*
X1529661Y4181D01*
X1529346Y4811D01*
X1529137Y5546D01*
X1529031Y6386D01*
Y7226D01*
X1529137Y8066D01*
X1529346Y8801D01*
X1529661Y9430D01*
X1530029Y9850D01*
X1530449Y9956D01*
X1530869Y9850D01*
X1531236Y9430D01*
X1531551Y8801D01*
X1531761Y8066D01*
X1531866Y7226D01*
Y6386D01*
X1531761Y5546D01*
X1531551Y4811D01*
X1531236Y4181D01*
X1530869Y3761D01*
X1530449Y3656D01*
G01X1533178D02*
Y9956D01*
X1535593Y3656D01*
Y9956D01*
G01X1537168Y3656D02*
Y9956D01*
X1538218D01*
X1538638Y9641D01*
X1538953Y9220D01*
X1539215Y8591D01*
X1539425Y7856D01*
X1539478Y6806D01*
X1539425Y5756D01*
X1539215Y5021D01*
X1538953Y4391D01*
X1538638Y3971D01*
X1538218Y3656D01*
X1537168D01*
G01X1541105Y9956D02*
Y5441D01*
X1541315Y4496D01*
X1541735Y3866D01*
X1542260Y3656D01*
X1542785Y3866D01*
X1543205Y4496D01*
X1543415Y5441D01*
Y9956D01*
G01X1547352Y9430D02*
X1547037Y9746D01*
X1546669Y9956D01*
X1546249D01*
X1545777Y9641D01*
X1545409Y9116D01*
X1545147Y8485D01*
X1544937Y7436D01*
X1544885Y6491D01*
X1544989Y5546D01*
X1545147Y4916D01*
X1545462Y4286D01*
X1545830Y3866D01*
X1546197Y3656D01*
X1546564D01*
X1546932Y3866D01*
X1547247Y4181D01*
X1547509Y4601D01*
G01X1550134Y9956D02*
Y3656D01*
G01X1548926Y9956D02*
X1551341D01*
G01X1554071Y3656D02*
X1553651Y3761D01*
X1553283Y4181D01*
X1552969Y4811D01*
X1552759Y5546D01*
X1552654Y6386D01*
Y7226D01*
X1552759Y8066D01*
X1552969Y8801D01*
X1553283Y9430D01*
X1553651Y9850D01*
X1554071Y9956D01*
X1554491Y9850D01*
X1554858Y9430D01*
X1555173Y8801D01*
X1555383Y8066D01*
X1555488Y7226D01*
Y6386D01*
X1555383Y5546D01*
X1555173Y4811D01*
X1554858Y4181D01*
X1554491Y3761D01*
X1554071Y3656D01*
G01X1556958D02*
Y9956D01*
X1558270D01*
X1558690Y9641D01*
X1558953Y9220D01*
X1559058Y8381D01*
X1558953Y7541D01*
X1558638Y7016D01*
X1558270Y6701D01*
X1556958D01*
G01X1558270D02*
X1559058Y3656D01*
G01X1505672Y39065D02*
X1507981Y43684D01*
G01X1506827Y44524D02*
Y38224D01*
G01X1507981Y39065D02*
X1505672Y43684D01*
G01X1505252Y41374D02*
X1508402D01*
G01X1517535Y40114D02*
X1517956Y39589D01*
X1518428Y39274D01*
X1518848D01*
X1519268Y39589D01*
X1519583Y40114D01*
X1519740Y40849D01*
X1519635Y41584D01*
X1519373Y42214D01*
X1518900Y42634D01*
X1518270Y42844D01*
X1517903Y43264D01*
X1517745Y43999D01*
X1517850Y44734D01*
X1518113Y45259D01*
X1518480Y45574D01*
X1518848D01*
X1519215Y45364D01*
X1519530Y44839D01*
G01X1521420Y45574D02*
Y41059D01*
X1521630Y40114D01*
X1522050Y39484D01*
X1522575Y39274D01*
X1523100Y39484D01*
X1523520Y40114D01*
X1523730Y41059D01*
Y45574D01*
G01X1525462Y39274D02*
Y45574D01*
X1526774D01*
X1527194Y45259D01*
X1527457Y44839D01*
X1527562Y43999D01*
X1527457Y43159D01*
X1527142Y42634D01*
X1526774Y42319D01*
X1525462D01*
G01X1526774D02*
X1527562Y39274D01*
G01X1529452D02*
Y45574D01*
X1531446D01*
G01X1530711Y42529D02*
X1529452D01*
G01X1533074Y39274D02*
X1534386Y45574D01*
X1535698Y39274D01*
G01X1535226Y41479D02*
X1533546D01*
G01X1539478Y45048D02*
X1539163Y45364D01*
X1538795Y45574D01*
X1538375D01*
X1537903Y45259D01*
X1537535Y44734D01*
X1537273Y44104D01*
X1537063Y43054D01*
X1537011Y42109D01*
X1537115Y41164D01*
X1537273Y40534D01*
X1537588Y39904D01*
X1537956Y39484D01*
X1538323Y39274D01*
X1538690D01*
X1539058Y39484D01*
X1539373Y39799D01*
X1539635Y40219D01*
G01X1543310Y39274D02*
X1541210D01*
Y45574D01*
X1543310D01*
G01X1542470Y42529D02*
X1541210D01*
G54D21*
X294882Y-212795D03*
D03*
X333465Y-91929D03*
D03*
X346063Y-101575D03*
D03*
X344882Y-104724D03*
D03*
X357480Y-168701D03*
D03*
X372638Y-120472D03*
D03*
X390551Y-180315D03*
D03*
X402732Y-185118D03*
D03*
X398031Y-140461D03*
D03*
X377756Y-118307D03*
D03*
X396591Y-109028D03*
D03*
X431472Y-185118D03*
D03*
X412575D03*
D03*
X422024D03*
D03*
X421850Y-174016D03*
D03*
X416929Y-148528D03*
D03*
X408909D03*
D03*
X427559Y-129882D03*
D03*
Y-116575D03*
D03*
X408646Y-127402D03*
D03*
Y-124685D03*
D03*
Y-122209D03*
D03*
Y-119594D03*
D03*
X406051Y-140461D03*
D03*
X437402Y-172835D03*
D03*
X456693Y-139173D03*
D03*
X460433Y-115098D03*
D03*
X462402Y-112992D03*
D03*
X470276Y-160236D03*
D03*
X468307Y-157480D03*
D03*
X472244Y-157283D03*
D03*
X476181Y-115646D03*
D03*
X471181Y-115622D03*
D03*
X472244Y-125394D03*
D03*
X477689Y-130579D03*
D03*
X486567Y-114252D03*
D03*
X468701Y-99713D03*
D03*
X473425Y-99776D03*
D03*
X475976Y-102874D03*
D03*
X535079Y-196736D03*
D03*
G54D12*
X62992Y-118110D03*
D03*
X614173D03*
D03*
G54D31*
G01X42776Y-285283D02*
X43563D01*
Y-287055D01*
X43327Y-287646D01*
X43051Y-288039D01*
X42657Y-288236D01*
X42264Y-288039D01*
X41988Y-287646D01*
X41752Y-287055D01*
X41594Y-286366D01*
X41516Y-285579D01*
Y-284890D01*
X41594Y-284299D01*
X41752Y-283610D01*
X41988Y-283020D01*
X42224Y-282626D01*
X42539Y-282331D01*
X42815D01*
X43130Y-282528D01*
X43366Y-282921D01*
G01X45295Y-288236D02*
X44980Y-288138D01*
X44705Y-287744D01*
X44469Y-287154D01*
X44311Y-286465D01*
X44232Y-285677D01*
Y-284890D01*
X44311Y-284102D01*
X44469Y-283413D01*
X44705Y-282823D01*
X44980Y-282429D01*
X45295Y-282331D01*
X45610Y-282429D01*
X45886Y-282823D01*
X46122Y-283413D01*
X46280Y-284102D01*
X46358Y-284890D01*
Y-285677D01*
X46280Y-286465D01*
X46122Y-287154D01*
X45886Y-287744D01*
X45610Y-288138D01*
X45295Y-288236D01*
G01X47185D02*
Y-282331D01*
X47972D01*
X48287Y-282626D01*
X48524Y-283020D01*
X48720Y-283610D01*
X48878Y-284299D01*
X48917Y-285283D01*
X48878Y-286268D01*
X48720Y-286957D01*
X48524Y-287547D01*
X48287Y-287941D01*
X47972Y-288236D01*
X47185D01*
G01X53878Y-285087D02*
X54035Y-284791D01*
X54154Y-284299D01*
X54232Y-283610D01*
X54154Y-283020D01*
X53996Y-282626D01*
X53720Y-282331D01*
X52657D01*
Y-288236D01*
X53957D01*
X54232Y-287843D01*
X54390Y-287252D01*
X54469Y-286563D01*
X54390Y-285874D01*
X54154Y-285283D01*
X53878Y-285087D01*
X52657D01*
G01X55531Y-282331D02*
Y-288236D01*
X57106D01*
G01X59862D02*
X58287D01*
Y-282331D01*
X59862D01*
G01X59232Y-285185D02*
X58287D01*
G01X61004Y-287449D02*
X61319Y-287941D01*
X61673Y-288236D01*
X61988D01*
X62303Y-287941D01*
X62539Y-287449D01*
X62657Y-286760D01*
X62579Y-286071D01*
X62382Y-285480D01*
X62028Y-285087D01*
X61555Y-284890D01*
X61280Y-284496D01*
X61161Y-283807D01*
X61240Y-283118D01*
X61437Y-282626D01*
X61713Y-282331D01*
X61988D01*
X62264Y-282528D01*
X62500Y-283020D01*
G01X63760Y-287449D02*
X64075Y-287941D01*
X64429Y-288236D01*
X64744D01*
X65059Y-287941D01*
X65295Y-287449D01*
X65413Y-286760D01*
X65335Y-286071D01*
X65138Y-285480D01*
X64783Y-285087D01*
X64311Y-284890D01*
X64035Y-284496D01*
X63917Y-283807D01*
X63996Y-283118D01*
X64193Y-282626D01*
X64469Y-282331D01*
X64744D01*
X65020Y-282528D01*
X65256Y-283020D01*
G01X69232Y-282331D02*
Y-286563D01*
X69390Y-287449D01*
X69705Y-288039D01*
X70098Y-288236D01*
X70492Y-288039D01*
X70807Y-287449D01*
X70965Y-286563D01*
Y-282331D01*
G01X72028Y-287449D02*
X72343Y-287941D01*
X72697Y-288236D01*
X73012D01*
X73327Y-287941D01*
X73563Y-287449D01*
X73681Y-286760D01*
X73602Y-286071D01*
X73406Y-285480D01*
X73051Y-285087D01*
X72579Y-284890D01*
X72303Y-284496D01*
X72185Y-283807D01*
X72264Y-283118D01*
X72461Y-282626D01*
X72736Y-282331D01*
X73012D01*
X73287Y-282528D01*
X73524Y-283020D01*
G01X75531Y-289319D02*
X75689Y-288039D01*
G01X80217Y-288236D02*
Y-282331D01*
X82028Y-288236D01*
Y-282331D01*
G01X83878Y-288236D02*
X83563Y-288138D01*
X83287Y-287744D01*
X83051Y-287154D01*
X82894Y-286465D01*
X82815Y-285677D01*
Y-284890D01*
X82894Y-284102D01*
X83051Y-283413D01*
X83287Y-282823D01*
X83563Y-282429D01*
X83878Y-282331D01*
X84193Y-282429D01*
X84469Y-282823D01*
X84705Y-283413D01*
X84862Y-284102D01*
X84941Y-284890D01*
Y-285677D01*
X84862Y-286465D01*
X84705Y-287154D01*
X84469Y-287744D01*
X84193Y-288138D01*
X83878Y-288236D01*
G01X89705Y-285087D02*
X89862Y-284791D01*
X89980Y-284299D01*
X90059Y-283610D01*
X89980Y-283020D01*
X89823Y-282626D01*
X89547Y-282331D01*
X88484D01*
Y-288236D01*
X89783D01*
X90059Y-287843D01*
X90217Y-287252D01*
X90295Y-286563D01*
X90217Y-285874D01*
X89980Y-285283D01*
X89705Y-285087D01*
X88484D01*
G01X91280Y-282331D02*
Y-286563D01*
X91437Y-287449D01*
X91752Y-288039D01*
X92146Y-288236D01*
X92539Y-288039D01*
X92854Y-287449D01*
X93012Y-286563D01*
Y-282331D01*
G01X95138Y-285283D02*
X95925D01*
Y-287055D01*
X95689Y-287646D01*
X95413Y-288039D01*
X95020Y-288236D01*
X94626Y-288039D01*
X94350Y-287646D01*
X94114Y-287055D01*
X93957Y-286366D01*
X93878Y-285579D01*
Y-284890D01*
X93957Y-284299D01*
X94114Y-283610D01*
X94350Y-283020D01*
X94587Y-282626D01*
X94902Y-282331D01*
X95177D01*
X95492Y-282528D01*
X95728Y-282921D01*
G01X96831Y-287449D02*
X97146Y-287941D01*
X97500Y-288236D01*
X97815D01*
X98130Y-287941D01*
X98366Y-287449D01*
X98484Y-286760D01*
X98406Y-286071D01*
X98209Y-285480D01*
X97854Y-285087D01*
X97382Y-284890D01*
X97106Y-284496D01*
X96988Y-283807D01*
X97067Y-283118D01*
X97264Y-282626D01*
X97539Y-282331D01*
X97815D01*
X98091Y-282528D01*
X98327Y-283020D01*
G01X102382Y-288236D02*
Y-282331D01*
X103327D01*
X103642Y-282626D01*
X103878Y-283315D01*
X103957Y-284102D01*
X103878Y-284890D01*
X103681Y-285480D01*
X103327Y-285776D01*
X102382D01*
G01X106713Y-288236D02*
X105138D01*
Y-282331D01*
X106713D01*
G01X106083Y-285185D02*
X105138D01*
G01X107894Y-288236D02*
Y-282331D01*
X108878D01*
X109193Y-282626D01*
X109390Y-283020D01*
X109469Y-283807D01*
X109390Y-284594D01*
X109154Y-285087D01*
X108878Y-285382D01*
X107894D01*
G01X108878D02*
X109469Y-288236D01*
G01X110413D02*
Y-282331D01*
X111437Y-287252D01*
X112461Y-282331D01*
Y-288236D01*
G01X113209D02*
X114193Y-282331D01*
X115177Y-288236D01*
G01X114823Y-286169D02*
X113563D01*
G01X116043Y-288236D02*
Y-282331D01*
X117854Y-288236D01*
Y-282331D01*
G01X120492Y-288236D02*
X118917D01*
Y-282331D01*
X120492D01*
G01X119862Y-285185D02*
X118917D01*
G01X121555Y-288236D02*
Y-282331D01*
X123366Y-288236D01*
Y-282331D01*
G01X125217D02*
Y-288236D01*
G01X124311Y-282331D02*
X126122D01*
G01X127185D02*
Y-288236D01*
X128760D01*
G01X130728D02*
Y-285579D01*
X129941Y-282331D01*
G01X131516D02*
X130728Y-285579D01*
G01X133484Y-288433D02*
X133406Y-288335D01*
Y-288138D01*
X133484Y-288039D01*
X133563Y-288138D01*
Y-288335D01*
X133484Y-288433D01*
G01X41846Y-273094D02*
Y-267189D01*
G01X43500D02*
Y-273094D01*
G01Y-270142D02*
X41846D01*
G01X46217Y-273094D02*
X44642D01*
Y-267189D01*
X46217D01*
G01X45587Y-270043D02*
X44642D01*
G01X47398Y-267189D02*
Y-273094D01*
X48972D01*
G01X50154Y-267189D02*
Y-273094D01*
X51728D01*
G01X53697D02*
X53382Y-272996D01*
X53106Y-272602D01*
X52870Y-272012D01*
X52713Y-271323D01*
X52634Y-270535D01*
Y-269748D01*
X52713Y-268961D01*
X52870Y-268272D01*
X53106Y-267681D01*
X53382Y-267287D01*
X53697Y-267189D01*
X54012Y-267287D01*
X54287Y-267681D01*
X54524Y-268272D01*
X54681Y-268961D01*
X54760Y-269748D01*
Y-270535D01*
X54681Y-271323D01*
X54524Y-272012D01*
X54287Y-272602D01*
X54012Y-272996D01*
X53697Y-273094D01*
G01X56374Y-274177D02*
X56531Y-272898D01*
G01X60980Y-273094D02*
X61965Y-267189D01*
X62949Y-273094D01*
G01X62594Y-271028D02*
X61335D01*
G01X63815Y-273094D02*
Y-267189D01*
X65626Y-273094D01*
Y-267189D01*
G01X67476Y-273094D02*
Y-270437D01*
X66689Y-267189D01*
G01X68264D02*
X67476Y-270437D01*
G01X72988Y-273094D02*
X72673Y-272996D01*
X72398Y-272602D01*
X72161Y-272012D01*
X72004Y-271323D01*
X71925Y-270535D01*
Y-269748D01*
X72004Y-268961D01*
X72161Y-268272D01*
X72398Y-267681D01*
X72673Y-267287D01*
X72988Y-267189D01*
X73303Y-267287D01*
X73579Y-267681D01*
X73815Y-268272D01*
X73972Y-268961D01*
X74051Y-269748D01*
Y-270535D01*
X73972Y-271323D01*
X73815Y-272012D01*
X73579Y-272602D01*
X73303Y-272996D01*
X72988Y-273094D01*
G01X73303Y-271520D02*
X73776Y-273094D01*
G01X74878Y-267189D02*
Y-271421D01*
X75035Y-272307D01*
X75350Y-272898D01*
X75744Y-273094D01*
X76138Y-272898D01*
X76453Y-272307D01*
X76610Y-271421D01*
Y-267189D01*
G01X79287Y-273094D02*
X77713D01*
Y-267189D01*
X79287D01*
G01X78657Y-270043D02*
X77713D01*
G01X80429Y-272307D02*
X80744Y-272799D01*
X81098Y-273094D01*
X81413D01*
X81728Y-272799D01*
X81965Y-272307D01*
X82083Y-271618D01*
X82004Y-270929D01*
X81807Y-270339D01*
X81453Y-269945D01*
X80980Y-269748D01*
X80705Y-269354D01*
X80587Y-268665D01*
X80665Y-267976D01*
X80862Y-267484D01*
X81138Y-267189D01*
X81413D01*
X81689Y-267386D01*
X81925Y-267878D01*
G01X84012Y-267189D02*
Y-273094D01*
G01X83106Y-267189D02*
X84917D01*
G01X86295D02*
X87240D01*
G01X86768D02*
Y-273094D01*
G01X86295D02*
X87240D01*
G01X89524D02*
X89209Y-272996D01*
X88933Y-272602D01*
X88697Y-272012D01*
X88539Y-271323D01*
X88461Y-270535D01*
Y-269748D01*
X88539Y-268961D01*
X88697Y-268272D01*
X88933Y-267681D01*
X89209Y-267287D01*
X89524Y-267189D01*
X89839Y-267287D01*
X90114Y-267681D01*
X90350Y-268272D01*
X90508Y-268961D01*
X90587Y-269748D01*
Y-270535D01*
X90508Y-271323D01*
X90350Y-272012D01*
X90114Y-272602D01*
X89839Y-272996D01*
X89524Y-273094D01*
G01X91374D02*
Y-267189D01*
X93185Y-273094D01*
Y-267189D01*
G01X94209Y-272307D02*
X94524Y-272799D01*
X94878Y-273094D01*
X95193D01*
X95508Y-272799D01*
X95744Y-272307D01*
X95862Y-271618D01*
X95783Y-270929D01*
X95587Y-270339D01*
X95232Y-269945D01*
X94760Y-269748D01*
X94484Y-269354D01*
X94366Y-268665D01*
X94445Y-267976D01*
X94642Y-267484D01*
X94917Y-267189D01*
X95193D01*
X95469Y-267386D01*
X95705Y-267878D01*
G01X99760Y-273094D02*
Y-267189D01*
X100705D01*
X101020Y-267484D01*
X101256Y-268173D01*
X101335Y-268961D01*
X101256Y-269748D01*
X101059Y-270339D01*
X100705Y-270634D01*
X99760D01*
G01X102516Y-267189D02*
Y-273094D01*
X104091D01*
G01X106846D02*
X105272D01*
Y-267189D01*
X106846D01*
G01X106217Y-270043D02*
X105272D01*
G01X107831Y-273094D02*
X108815Y-267189D01*
X109799Y-273094D01*
G01X109445Y-271028D02*
X108185D01*
G01X110744Y-272307D02*
X111059Y-272799D01*
X111413Y-273094D01*
X111728D01*
X112043Y-272799D01*
X112280Y-272307D01*
X112398Y-271618D01*
X112319Y-270929D01*
X112122Y-270339D01*
X111768Y-269945D01*
X111295Y-269748D01*
X111020Y-269354D01*
X110902Y-268665D01*
X110980Y-267976D01*
X111177Y-267484D01*
X111453Y-267189D01*
X111728D01*
X112004Y-267386D01*
X112240Y-267878D01*
G01X115114Y-273094D02*
X113539D01*
Y-267189D01*
X115114D01*
G01X114484Y-270043D02*
X113539D01*
G01X120705Y-267681D02*
X120469Y-267386D01*
X120193Y-267189D01*
X119878D01*
X119524Y-267484D01*
X119248Y-267976D01*
X119051Y-268567D01*
X118894Y-269551D01*
X118854Y-270437D01*
X118933Y-271323D01*
X119051Y-271913D01*
X119287Y-272504D01*
X119563Y-272898D01*
X119839Y-273094D01*
X120114D01*
X120390Y-272898D01*
X120626Y-272602D01*
X120823Y-272209D01*
G01X122594Y-273094D02*
X122280Y-272996D01*
X122004Y-272602D01*
X121768Y-272012D01*
X121610Y-271323D01*
X121531Y-270535D01*
Y-269748D01*
X121610Y-268961D01*
X121768Y-268272D01*
X122004Y-267681D01*
X122280Y-267287D01*
X122594Y-267189D01*
X122909Y-267287D01*
X123185Y-267681D01*
X123421Y-268272D01*
X123579Y-268961D01*
X123657Y-269748D01*
Y-270535D01*
X123579Y-271323D01*
X123421Y-272012D01*
X123185Y-272602D01*
X122909Y-272996D01*
X122594Y-273094D01*
G01X124445D02*
Y-267189D01*
X126256Y-273094D01*
Y-267189D01*
G01X128106D02*
Y-273094D01*
G01X127201Y-267189D02*
X129012D01*
G01X129878Y-273094D02*
X130862Y-267189D01*
X131846Y-273094D01*
G01X131492Y-271028D02*
X130232D01*
G01X134484Y-267681D02*
X134248Y-267386D01*
X133972Y-267189D01*
X133657D01*
X133303Y-267484D01*
X133028Y-267976D01*
X132831Y-268567D01*
X132673Y-269551D01*
X132634Y-270437D01*
X132713Y-271323D01*
X132831Y-271913D01*
X133067Y-272504D01*
X133343Y-272898D01*
X133618Y-273094D01*
X133894D01*
X134169Y-272898D01*
X134406Y-272602D01*
X134602Y-272209D01*
G01X136374Y-267189D02*
Y-273094D01*
G01X135469Y-267189D02*
X137280D01*
G01X140862Y-273094D02*
Y-267189D01*
X141886Y-272110D01*
X142909Y-267189D01*
Y-273094D01*
G01X143854D02*
Y-267189D01*
X144839D01*
X145154Y-267484D01*
X145350Y-267878D01*
X145429Y-268665D01*
X145350Y-269453D01*
X145114Y-269945D01*
X144839Y-270240D01*
X143854D01*
G01X144839D02*
X145429Y-273094D01*
G01X147398Y-273291D02*
X147319Y-273193D01*
Y-272996D01*
X147398Y-272898D01*
X147476Y-272996D01*
Y-273193D01*
X147398Y-273291D01*
G01X149406Y-267189D02*
X150902D01*
X149406Y-273094D01*
X150902D01*
G01X152083D02*
Y-267189D01*
G01X153736D02*
Y-273094D01*
G01Y-270142D02*
X152083D01*
G01X154681Y-273094D02*
X155665Y-267189D01*
X156650Y-273094D01*
G01X156295Y-271028D02*
X155035D01*
G01X157516Y-273094D02*
Y-267189D01*
X159327Y-273094D01*
Y-267189D01*
G01X161413Y-270142D02*
X162201D01*
Y-271913D01*
X161965Y-272504D01*
X161689Y-272898D01*
X161295Y-273094D01*
X160902Y-272898D01*
X160626Y-272504D01*
X160390Y-271913D01*
X160232Y-271224D01*
X160154Y-270437D01*
Y-269748D01*
X160232Y-269157D01*
X160390Y-268469D01*
X160626Y-267878D01*
X160862Y-267484D01*
X161177Y-267189D01*
X161453D01*
X161768Y-267386D01*
X162004Y-267780D01*
G01X166256Y-271126D02*
X167201D01*
G01X166689Y-269846D02*
Y-272406D01*
G01X169445Y-273094D02*
X169720Y-272996D01*
X170035Y-272701D01*
X170232Y-272209D01*
X170311Y-271520D01*
X170232Y-270831D01*
X169996Y-270240D01*
X169642Y-269945D01*
X169248D01*
X169012Y-269748D01*
X168815Y-269256D01*
X168736Y-268567D01*
X168854Y-267878D01*
X169130Y-267386D01*
X169445Y-267189D01*
X169760Y-267386D01*
X170035Y-267878D01*
X170154Y-268567D01*
X170075Y-269256D01*
X169878Y-269748D01*
X169642Y-269945D01*
X169248D01*
X168894Y-270240D01*
X168657Y-270831D01*
X168579Y-271520D01*
X168657Y-272209D01*
X168854Y-272701D01*
X169169Y-272996D01*
X169445Y-273094D01*
G01X171453Y-270634D02*
X171728Y-269945D01*
X171965Y-269551D01*
X172280Y-269354D01*
X172555Y-269551D01*
X172752Y-269945D01*
X172909Y-270535D01*
X172949Y-271224D01*
X172909Y-271815D01*
X172752Y-272406D01*
X172516Y-272898D01*
X172240Y-273094D01*
X171925Y-272898D01*
X171650Y-272307D01*
X171492Y-271421D01*
X171453Y-270437D01*
X171531Y-269157D01*
X171650Y-268469D01*
X171846Y-267780D01*
X172122Y-267287D01*
X172398Y-267189D01*
X172673Y-267386D01*
X172870Y-267878D01*
G01X174957Y-273094D02*
Y-267189D01*
X174484Y-268370D01*
G01Y-273094D02*
X175429D01*
G01X176846Y-271913D02*
X177083Y-272602D01*
X177398Y-272996D01*
X177752Y-273094D01*
X178067Y-272996D01*
X178382Y-272504D01*
X178579Y-271913D01*
X178618Y-271323D01*
X178539Y-270634D01*
X178264Y-270142D01*
X177988Y-269945D01*
X177634D01*
G01X177988D02*
X178224Y-269650D01*
X178421Y-269157D01*
X178500Y-268567D01*
X178421Y-267976D01*
X178224Y-267484D01*
X177870Y-267189D01*
X177516Y-267287D01*
X177161Y-267681D01*
G01X179602Y-272209D02*
X179839Y-272701D01*
X180114Y-272996D01*
X180469Y-273094D01*
X180823Y-272898D01*
X181098Y-272504D01*
X181295Y-271815D01*
X181335Y-271028D01*
X181256Y-270240D01*
X181059Y-269748D01*
X180783Y-269354D01*
X180508Y-269256D01*
X180232Y-269354D01*
X179878Y-269748D01*
X179996Y-267189D01*
X181059D01*
G01X182476Y-268173D02*
X182713Y-267583D01*
X182988Y-267287D01*
X183303Y-267189D01*
X183697Y-267386D01*
X183972Y-267878D01*
X184051Y-268469D01*
X184012Y-269059D01*
X183854Y-269551D01*
X183067Y-270535D01*
X182713Y-271224D01*
X182476Y-272209D01*
X182398Y-273094D01*
X184051D01*
G01X185232Y-268173D02*
X185469Y-267583D01*
X185744Y-267287D01*
X186059Y-267189D01*
X186453Y-267386D01*
X186728Y-267878D01*
X186807Y-268469D01*
X186768Y-269059D01*
X186610Y-269551D01*
X185823Y-270535D01*
X185469Y-271224D01*
X185232Y-272209D01*
X185154Y-273094D01*
X186807D01*
G01X187988Y-268173D02*
X188224Y-267583D01*
X188500Y-267287D01*
X188815Y-267189D01*
X189209Y-267386D01*
X189484Y-267878D01*
X189563Y-268469D01*
X189524Y-269059D01*
X189366Y-269551D01*
X188579Y-270535D01*
X188224Y-271224D01*
X187988Y-272209D01*
X187909Y-273094D01*
X189563D01*
G01X190823Y-272406D02*
X191098Y-272898D01*
X191413Y-273094D01*
X191728Y-272898D01*
X192004Y-272307D01*
X192201Y-271421D01*
X192280Y-270535D01*
Y-269453D01*
X192201Y-268567D01*
X192004Y-267780D01*
X191768Y-267386D01*
X191492Y-267189D01*
X191177Y-267386D01*
X190941Y-267780D01*
X190783Y-268370D01*
X190705Y-269157D01*
X190783Y-269846D01*
X190980Y-270535D01*
X191217Y-270929D01*
X191492Y-271028D01*
X191807Y-270831D01*
X192043Y-270339D01*
X192280Y-269453D01*
G01X193500Y-270634D02*
X193776Y-269945D01*
X194012Y-269551D01*
X194327Y-269354D01*
X194602Y-269551D01*
X194799Y-269945D01*
X194957Y-270535D01*
X194996Y-271224D01*
X194957Y-271815D01*
X194799Y-272406D01*
X194563Y-272898D01*
X194287Y-273094D01*
X193972Y-272898D01*
X193697Y-272307D01*
X193539Y-271421D01*
X193500Y-270437D01*
X193579Y-269157D01*
X193697Y-268469D01*
X193894Y-267780D01*
X194169Y-267287D01*
X194445Y-267189D01*
X194720Y-267386D01*
X194917Y-267878D01*
G01X196256Y-268173D02*
X196492Y-267583D01*
X196768Y-267287D01*
X197083Y-267189D01*
X197476Y-267386D01*
X197752Y-267878D01*
X197831Y-268469D01*
X197791Y-269059D01*
X197634Y-269551D01*
X196846Y-270535D01*
X196492Y-271224D01*
X196256Y-272209D01*
X196177Y-273094D01*
X197831D01*
G01X198894Y-271913D02*
X199130Y-272602D01*
X199445Y-272996D01*
X199799Y-273094D01*
X200114Y-272996D01*
X200429Y-272504D01*
X200626Y-271913D01*
X200665Y-271323D01*
X200587Y-270634D01*
X200311Y-270142D01*
X200035Y-269945D01*
X199681D01*
G01X200035D02*
X200272Y-269650D01*
X200469Y-269157D01*
X200547Y-268567D01*
X200469Y-267976D01*
X200272Y-267484D01*
X199917Y-267189D01*
X199563Y-267287D01*
X199209Y-267681D01*
G01X201846Y-272406D02*
X202122Y-272898D01*
X202437Y-273094D01*
X202752Y-272898D01*
X203028Y-272307D01*
X203224Y-271421D01*
X203303Y-270535D01*
Y-269453D01*
X203224Y-268567D01*
X203028Y-267780D01*
X202791Y-267386D01*
X202516Y-267189D01*
X202201Y-267386D01*
X201965Y-267780D01*
X201807Y-268370D01*
X201728Y-269157D01*
X201807Y-269846D01*
X202004Y-270535D01*
X202240Y-270929D01*
X202516Y-271028D01*
X202831Y-270831D01*
X203067Y-270339D01*
X203303Y-269453D01*
G01X205272Y-273291D02*
X205193Y-273193D01*
Y-272996D01*
X205272Y-272898D01*
X205350Y-272996D01*
Y-273193D01*
X205272Y-273291D01*
G54D13*
X62992Y-118110D03*
X614173D03*
X788281Y-204657D03*
G54D22*
X294882Y-212795D03*
X333465Y-91929D03*
X346063Y-101575D03*
X344882Y-104724D03*
X357480Y-168701D03*
X372638Y-120472D03*
X390551Y-180315D03*
X402732Y-185118D03*
X398031Y-140461D03*
X377756Y-118307D03*
X396591Y-109028D03*
X431472Y-185118D03*
X412575D03*
X422024D03*
X421850Y-174016D03*
X416929Y-148528D03*
X408909D03*
X427559Y-129882D03*
Y-116575D03*
X408646Y-127402D03*
Y-124685D03*
Y-122209D03*
Y-119594D03*
X406051Y-140461D03*
X437402Y-172835D03*
X456693Y-139173D03*
X460433Y-115098D03*
X462402Y-112992D03*
X470276Y-160236D03*
X468307Y-157480D03*
X472244Y-157283D03*
X476181Y-115646D03*
X471181Y-115622D03*
X472244Y-125394D03*
X477689Y-130579D03*
X486567Y-114252D03*
X468701Y-99713D03*
X473425Y-99776D03*
X475976Y-102874D03*
X535079Y-196736D03*
X788281Y10303D03*
G54D32*
G01X-139043Y-360059D02*
Y173898D01*
X1623661D01*
Y-360059D01*
X-139043D01*
G01X-9843Y-236220D02*
X-53559D01*
G01X-43717Y-126597D02*
Y-236220D01*
G01X-46177Y-220472D02*
X-43717Y-236220D01*
X-41256Y-220472D01*
X-46177D01*
G01X-52862Y-112015D02*
X-51776Y-110556D01*
X-50846Y-109722D01*
X-49606Y-109306D01*
X-48521Y-109722D01*
X-47746Y-110556D01*
X-47126Y-111806D01*
X-46971Y-113264D01*
X-47126Y-114514D01*
X-47746Y-115765D01*
X-48677Y-116806D01*
X-49761Y-117222D01*
X-51002Y-116806D01*
X-52087Y-115556D01*
X-52707Y-113681D01*
X-52862Y-111598D01*
X-52552Y-108889D01*
X-52087Y-107431D01*
X-51312Y-105972D01*
X-50227Y-104931D01*
X-49142Y-104722D01*
X-48057Y-105139D01*
X-47281Y-106181D01*
G01X-37517Y-104722D02*
X-38757Y-105139D01*
X-39687Y-106181D01*
X-40307Y-107431D01*
X-40772Y-109098D01*
X-40926Y-110972D01*
X-40772Y-112848D01*
X-40307Y-114514D01*
X-39687Y-115765D01*
X-38757Y-116806D01*
X-37517Y-117222D01*
X-36277Y-116806D01*
X-35346Y-115765D01*
X-34726Y-114514D01*
X-34261Y-112848D01*
X-34107Y-110972D01*
X-34261Y-109098D01*
X-34726Y-107431D01*
X-35346Y-106181D01*
X-36277Y-105139D01*
X-37517Y-104722D01*
G01X-43717Y-95348D02*
Y0D01*
G01X-9843D02*
X-53559D01*
G01X-41256Y-15748D02*
X-43717Y0D01*
X-46177Y-15748D01*
X-41256D01*
G01X677165Y-236220D02*
Y0D01*
X0D01*
Y-236220D01*
X677165D01*
G01X0Y9843D02*
Y101228D01*
G01X299721Y91386D02*
X0D01*
G01X15748Y93846D02*
X0Y91386D01*
X15748Y88925D01*
Y93846D01*
G01X62992Y-108268D02*
Y51969D01*
G01X300418Y42126D02*
X62992D01*
G01X78740Y44587D02*
X62992Y42126D01*
X78740Y39665D01*
Y44587D01*
G01X314443Y35876D02*
Y48376D01*
X312583Y45876D01*
G01Y35876D02*
X316302D01*
G01X328702D02*
Y48376D01*
X322967Y39418D01*
X330718D01*
G01X339243Y48376D02*
X338002Y47959D01*
X337072Y46918D01*
X336452Y45668D01*
X335987Y44001D01*
X335833Y42126D01*
X335987Y40251D01*
X336452Y38584D01*
X337072Y37334D01*
X338002Y36293D01*
X339243Y35876D01*
X340482Y36293D01*
X341413Y37334D01*
X342033Y38584D01*
X342498Y40251D01*
X342652Y42126D01*
X342498Y44001D01*
X342033Y45668D01*
X341413Y46918D01*
X340482Y47959D01*
X339243Y48376D01*
G01X313746Y85136D02*
Y97636D01*
X311886Y95136D01*
G01Y85136D02*
X315606D01*
G01X325835D02*
X326146Y87844D01*
X326611Y90135D01*
X327231Y92219D01*
X328006Y94511D01*
X329246Y97636D01*
X323046D01*
G01X335600Y95552D02*
X336531Y96802D01*
X337616Y97428D01*
X338856Y97636D01*
X340406Y97219D01*
X341491Y96178D01*
X341801Y94928D01*
X341646Y93677D01*
X341026Y92636D01*
X337926Y90552D01*
X336531Y89094D01*
X335600Y87010D01*
X335291Y85136D01*
X341801D01*
G01X353267Y42126D02*
X614173D01*
G01X352570Y91386D02*
X677165D01*
G01X598425Y39665D02*
X614173Y42126D01*
X598425Y44587D01*
Y39665D01*
G01X614173Y-108268D02*
Y51969D01*
G01X661417Y88925D02*
X677165Y91386D01*
X661417Y93846D01*
Y88925D01*
G01X677165Y9843D02*
Y101228D01*
G01X743331Y-281429D02*
Y101248D01*
X1366431D01*
Y-281429D01*
X743331D01*
G01Y-250720D02*
X1366431D01*
G01X743331Y-220012D02*
X1366431D01*
G01X743331Y-189303D02*
X1366431D01*
G01X743331Y-158594D02*
X1366431D01*
G01X743331Y-127886D02*
X1366431D01*
G01X743331Y-97177D02*
X1366431D01*
G01X743331Y-66469D02*
X1366431D01*
G01X743331Y-35760D02*
X1366431D01*
G01X743331Y-5051D02*
X1366431D01*
G01X743331Y25657D02*
X1366431D01*
G01X743331Y50657D02*
X1366431D01*
G01X743331Y75657D02*
X1366431D01*
G01X754335Y31907D02*
Y44407D01*
X760226D01*
G01X758056Y38366D02*
X754335D01*
G01X767821Y44407D02*
X771541D01*
G01X769681D02*
Y31907D01*
G01X767821D02*
X771541D01*
G01X783011Y38157D02*
X786111D01*
Y34407D01*
X785181Y33157D01*
X784096Y32324D01*
X782546Y31907D01*
X780996Y32324D01*
X779911Y33157D01*
X778981Y34407D01*
X778361Y35866D01*
X778050Y37532D01*
Y38991D01*
X778361Y40241D01*
X778981Y41699D01*
X779911Y42949D01*
X780841Y43782D01*
X782081Y44407D01*
X783166D01*
X784406Y43991D01*
X785336Y43157D01*
G01X791071Y44407D02*
Y35449D01*
X791691Y33574D01*
X792931Y32324D01*
X794481Y31907D01*
X796031Y32324D01*
X797271Y33574D01*
X797891Y35449D01*
Y44407D01*
G01X803781Y31907D02*
Y44407D01*
X807656D01*
X808896Y43782D01*
X809671Y42949D01*
X809981Y41282D01*
X809671Y39616D01*
X808741Y38574D01*
X807656Y37949D01*
X803781D01*
G01X807656D02*
X809981Y31907D01*
G01X822381D02*
X816181D01*
Y44407D01*
X822381D01*
G01X819901Y38366D02*
X816181D01*
G01X833231Y50657D02*
Y-281429D01*
G01X856635Y31907D02*
Y44407D01*
X862526D01*
G01X860356Y38366D02*
X856635D01*
G01X870121Y44407D02*
X873841D01*
G01X871981D02*
Y31907D01*
G01X870121D02*
X873841D01*
G01X880816D02*
Y44407D01*
X887946Y31907D01*
Y44407D01*
G01X894921D02*
X898641D01*
G01X896781D02*
Y31907D01*
G01X894921D02*
X898641D01*
G01X905926Y33574D02*
X907166Y32532D01*
X908561Y31907D01*
X909801D01*
X911041Y32532D01*
X911971Y33574D01*
X912436Y35033D01*
X912126Y36491D01*
X911351Y37741D01*
X909956Y38574D01*
X908096Y38991D01*
X907011Y39824D01*
X906546Y41282D01*
X906856Y42741D01*
X907631Y43782D01*
X908716Y44407D01*
X909801D01*
X910886Y43991D01*
X911816Y42949D01*
G01X918326Y31907D02*
Y44407D01*
G01X924836D02*
Y31907D01*
G01Y38157D02*
X918326D01*
G01X937081Y31907D02*
X930881D01*
Y44407D01*
X937081D01*
G01X934601Y38366D02*
X930881D01*
G01X942971Y31907D02*
Y44407D01*
X946070D01*
X947311Y43782D01*
X948241Y42949D01*
X949016Y41699D01*
X949636Y40241D01*
X949791Y38157D01*
X949636Y36074D01*
X949016Y34616D01*
X948241Y33365D01*
X947311Y32532D01*
X946070Y31907D01*
X942971D01*
G01X954131Y27741D02*
X963431D01*
G01X967926Y33574D02*
X969166Y32532D01*
X970561Y31907D01*
X971801D01*
X973041Y32532D01*
X973971Y33574D01*
X974436Y35033D01*
X974126Y36491D01*
X973351Y37741D01*
X971956Y38574D01*
X970096Y38991D01*
X969011Y39824D01*
X968546Y41282D01*
X968856Y42741D01*
X969631Y43782D01*
X970716Y44407D01*
X971801D01*
X972886Y43991D01*
X973816Y42949D01*
G01X981721Y44407D02*
X985441D01*
G01X983581D02*
Y31907D01*
G01X981721D02*
X985441D01*
G01X993035Y44407D02*
X998926D01*
X993035Y31907D01*
X998926D01*
G01X1011481D02*
X1005281D01*
Y44407D01*
X1011481D01*
G01X1009001Y38366D02*
X1005281D01*
G01X893371Y-270450D02*
X894300Y-271492D01*
X895385Y-272117D01*
X896781Y-272325D01*
X898176Y-271908D01*
X899261Y-271075D01*
X900036Y-269617D01*
X900191Y-267950D01*
X899881Y-266283D01*
X899106Y-265241D01*
X898020Y-264408D01*
X896936Y-264200D01*
X895851Y-264408D01*
X894456Y-265241D01*
X894921Y-259825D01*
X899106D01*
G01X909181Y-272741D02*
X908870Y-272533D01*
Y-272117D01*
X909181Y-271908D01*
X909491Y-272117D01*
Y-272533D01*
X909181Y-272741D01*
G01X918635Y-261908D02*
X919566Y-260658D01*
X920651Y-260033D01*
X921891Y-259825D01*
X923441Y-260241D01*
X924526Y-261283D01*
X924836Y-262533D01*
X924681Y-263783D01*
X924061Y-264825D01*
X920961Y-266908D01*
X919566Y-268367D01*
X918635Y-270450D01*
X918326Y-272325D01*
X924836D01*
G01X931656Y-263992D02*
X936306Y-272325D01*
G01Y-263992D02*
X931656Y-272325D01*
G01X942971Y-269825D02*
X943900Y-271283D01*
X945141Y-272117D01*
X946536Y-272325D01*
X947776Y-272117D01*
X949016Y-271075D01*
X949791Y-269825D01*
X949946Y-268575D01*
X949636Y-267117D01*
X948551Y-266075D01*
X947466Y-265658D01*
X946070D01*
G01X947466D02*
X948396Y-265033D01*
X949171Y-263992D01*
X949481Y-262742D01*
X949171Y-261491D01*
X948396Y-260450D01*
X947001Y-259825D01*
X945606Y-260033D01*
X944211Y-260867D01*
G01X958781Y-272741D02*
X958470Y-272533D01*
Y-272117D01*
X958781Y-271908D01*
X959091Y-272117D01*
Y-272533D01*
X958781Y-272741D01*
G01X968235Y-261908D02*
X969166Y-260658D01*
X970251Y-260033D01*
X971491Y-259825D01*
X973041Y-260241D01*
X974126Y-261283D01*
X974436Y-262533D01*
X974281Y-263783D01*
X973661Y-264825D01*
X970561Y-266908D01*
X969166Y-268367D01*
X968235Y-270450D01*
X967926Y-272325D01*
X974436D01*
G01X893371Y-239742D02*
X894300Y-240783D01*
X895385Y-241408D01*
X896781Y-241616D01*
X898176Y-241200D01*
X899261Y-240367D01*
X900036Y-238908D01*
X900191Y-237241D01*
X899881Y-235575D01*
X899106Y-234533D01*
X898020Y-233700D01*
X896936Y-233491D01*
X895851Y-233700D01*
X894456Y-234533D01*
X894921Y-229116D01*
X899106D01*
G01X909181Y-242033D02*
X908870Y-241824D01*
Y-241408D01*
X909181Y-241200D01*
X909491Y-241408D01*
Y-241824D01*
X909181Y-242033D01*
G01X918635Y-231200D02*
X919566Y-229950D01*
X920651Y-229324D01*
X921891Y-229116D01*
X923441Y-229533D01*
X924526Y-230574D01*
X924836Y-231824D01*
X924681Y-233075D01*
X924061Y-234116D01*
X920961Y-236200D01*
X919566Y-237658D01*
X918635Y-239742D01*
X918326Y-241616D01*
X924836D01*
G01X931656Y-233283D02*
X936306Y-241616D01*
G01Y-233283D02*
X931656Y-241616D01*
G01X943435Y-231200D02*
X944366Y-229950D01*
X945451Y-229324D01*
X946691Y-229116D01*
X948241Y-229533D01*
X949326Y-230574D01*
X949636Y-231824D01*
X949481Y-233075D01*
X948861Y-234116D01*
X945761Y-236200D01*
X944366Y-237658D01*
X943435Y-239742D01*
X943126Y-241616D01*
X949636D01*
G01X958781Y-242033D02*
X958470Y-241824D01*
Y-241408D01*
X958781Y-241200D01*
X959091Y-241408D01*
Y-241824D01*
X958781Y-242033D01*
G01X973041Y-241616D02*
Y-229116D01*
X967306Y-238074D01*
X975056D01*
G01X883606Y56907D02*
X887481Y69407D01*
X891356Y56907D01*
G01X889961Y61282D02*
X885000D01*
G01X896781Y69407D02*
Y56907D01*
X902981D01*
G01X909181Y69407D02*
Y56907D01*
X915381D01*
G01X933671Y69407D02*
Y60449D01*
X934291Y58574D01*
X935531Y57324D01*
X937081Y56907D01*
X938631Y57324D01*
X939871Y58574D01*
X940491Y60449D01*
Y69407D01*
G01X945916Y56907D02*
Y69407D01*
X953046Y56907D01*
Y69407D01*
G01X960021D02*
X963741D01*
G01X961881D02*
Y56907D01*
G01X960021D02*
X963741D01*
G01X974281Y69407D02*
Y56907D01*
G01X970716Y69407D02*
X977846D01*
G01X983426Y58574D02*
X984666Y57532D01*
X986061Y56907D01*
X987301D01*
X988541Y57532D01*
X989471Y58574D01*
X989936Y60033D01*
X989626Y61491D01*
X988851Y62741D01*
X987456Y63574D01*
X985596Y63991D01*
X984511Y64824D01*
X984046Y66282D01*
X984356Y67741D01*
X985131Y68782D01*
X986216Y69407D01*
X987301D01*
X988386Y68991D01*
X989316Y67949D01*
G01X1007606Y56907D02*
X1011481Y69407D01*
X1015356Y56907D01*
G01X1013961Y61282D02*
X1009000D01*
G01X1020781Y56907D02*
Y69407D01*
X1024656D01*
X1025896Y68782D01*
X1026671Y67949D01*
X1026981Y66282D01*
X1026671Y64616D01*
X1025741Y63574D01*
X1024656Y62949D01*
X1020781D01*
G01X1024656D02*
X1026981Y56907D01*
G01X1039381D02*
X1033181D01*
Y69407D01*
X1039381D01*
G01X1036901Y63366D02*
X1033181D01*
G01X1059221Y69407D02*
X1062941D01*
G01X1061081D02*
Y56907D01*
G01X1059221D02*
X1062941D01*
G01X1069916D02*
Y69407D01*
X1077046Y56907D01*
Y69407D01*
G01X1094250Y56907D02*
Y69407D01*
X1098281Y58991D01*
X1102311Y69407D01*
Y56907D01*
G01X1108821Y69407D02*
X1112541D01*
G01X1110681D02*
Y56907D01*
G01X1108821D02*
X1112541D01*
G01X1119981Y69407D02*
Y56907D01*
X1126181D01*
G01X1132381Y69407D02*
Y56907D01*
X1138581D01*
G01X1146021Y69407D02*
X1149741D01*
G01X1147881D02*
Y56907D01*
G01X1146021D02*
X1149741D01*
G01X1156250D02*
Y69407D01*
X1160281Y58991D01*
X1164311Y69407D01*
Y56907D01*
G01X1175781D02*
X1169581D01*
Y69407D01*
X1175781D01*
G01X1173301Y63366D02*
X1169581D01*
G01X1185081Y69407D02*
Y56907D01*
G01X1181516Y69407D02*
X1188646D01*
G01X1200581Y56907D02*
X1194381D01*
Y69407D01*
X1200581D01*
G01X1198101Y63366D02*
X1194381D01*
G01X1206781Y56907D02*
Y69407D01*
X1210656D01*
X1211896Y68782D01*
X1212671Y67949D01*
X1212981Y66282D01*
X1212671Y64616D01*
X1211741Y63574D01*
X1210656Y62949D01*
X1206781D01*
G01X1210656D02*
X1212981Y56907D01*
G01X1219026Y58574D02*
X1220266Y57532D01*
X1221661Y56907D01*
X1222901D01*
X1224141Y57532D01*
X1225071Y58574D01*
X1225536Y60033D01*
X1225226Y61491D01*
X1224451Y62741D01*
X1223056Y63574D01*
X1221196Y63991D01*
X1220111Y64824D01*
X1219646Y66282D01*
X1219956Y67741D01*
X1220731Y68782D01*
X1221816Y69407D01*
X1222901D01*
X1223986Y68991D01*
X1224916Y67949D01*
G01X918171Y-208407D02*
X919100Y-209866D01*
X920341Y-210699D01*
X921736Y-210907D01*
X922976Y-210699D01*
X924216Y-209658D01*
X924991Y-208407D01*
X925146Y-207157D01*
X924836Y-205700D01*
X923751Y-204657D01*
X922666Y-204241D01*
X921270D01*
G01X922666D02*
X923596Y-203616D01*
X924371Y-202574D01*
X924681Y-201324D01*
X924371Y-200074D01*
X923596Y-199033D01*
X922201Y-198407D01*
X920806Y-198616D01*
X919411Y-199449D01*
G01X933981Y-211324D02*
X933670Y-211116D01*
Y-210699D01*
X933981Y-210491D01*
X934291Y-210699D01*
Y-211116D01*
X933981Y-211324D01*
G01X946381Y-198407D02*
X945141Y-198824D01*
X944211Y-199866D01*
X943591Y-201116D01*
X943126Y-202783D01*
X942971Y-204657D01*
X943126Y-206533D01*
X943591Y-208199D01*
X944211Y-209450D01*
X945141Y-210491D01*
X946381Y-210907D01*
X947620Y-210491D01*
X948551Y-209450D01*
X949171Y-208199D01*
X949636Y-206533D01*
X949791Y-204657D01*
X949636Y-202783D01*
X949171Y-201116D01*
X948551Y-199866D01*
X947620Y-198824D01*
X946381Y-198407D01*
G01X921581Y-180199D02*
Y-167699D01*
X919721Y-170199D01*
G01Y-180199D02*
X923441D01*
G01X933981Y-180615D02*
X933670Y-180407D01*
Y-179991D01*
X933981Y-179782D01*
X934291Y-179991D01*
Y-180407D01*
X933981Y-180615D01*
G01X942971Y-178324D02*
X943900Y-179366D01*
X944985Y-179991D01*
X946381Y-180199D01*
X947776Y-179782D01*
X948861Y-178949D01*
X949636Y-177491D01*
X949791Y-175824D01*
X949481Y-174157D01*
X948706Y-173115D01*
X947620Y-172282D01*
X946536Y-172074D01*
X945451Y-172282D01*
X944056Y-173115D01*
X944521Y-167699D01*
X948706D01*
G01X921581Y-149490D02*
Y-136990D01*
X919721Y-139490D01*
G01Y-149490D02*
X923441D01*
G01X933981Y-149907D02*
X933670Y-149698D01*
Y-149282D01*
X933981Y-149074D01*
X934291Y-149282D01*
Y-149698D01*
X933981Y-149907D01*
G01X942971Y-147616D02*
X943900Y-148657D01*
X944985Y-149282D01*
X946381Y-149490D01*
X947776Y-149074D01*
X948861Y-148241D01*
X949636Y-146782D01*
X949791Y-145115D01*
X949481Y-143449D01*
X948706Y-142407D01*
X947620Y-141574D01*
X946536Y-141365D01*
X945451Y-141574D01*
X944056Y-142407D01*
X944521Y-136990D01*
X948706D01*
G01X921581Y-118781D02*
Y-106281D01*
X919721Y-108781D01*
G01Y-118781D02*
X923441D01*
G01X933981Y-119198D02*
X933670Y-118990D01*
Y-118573D01*
X933981Y-118365D01*
X934291Y-118573D01*
Y-118990D01*
X933981Y-119198D01*
G01X946381Y-106281D02*
X945141Y-106698D01*
X944211Y-107740D01*
X943591Y-108990D01*
X943126Y-110657D01*
X942971Y-112531D01*
X943126Y-114407D01*
X943591Y-116073D01*
X944211Y-117324D01*
X945141Y-118365D01*
X946381Y-118781D01*
X947620Y-118365D01*
X948551Y-117324D01*
X949171Y-116073D01*
X949636Y-114407D01*
X949791Y-112531D01*
X949636Y-110657D01*
X949171Y-108990D01*
X948551Y-107740D01*
X947620Y-106698D01*
X946381Y-106281D01*
G01X921581Y-75573D02*
X920341Y-75989D01*
X919411Y-77031D01*
X918791Y-78281D01*
X918326Y-79948D01*
X918171Y-81823D01*
X918326Y-83698D01*
X918791Y-85365D01*
X919411Y-86615D01*
X920341Y-87656D01*
X921581Y-88073D01*
X922820Y-87656D01*
X923751Y-86615D01*
X924371Y-85365D01*
X924836Y-83698D01*
X924991Y-81823D01*
X924836Y-79948D01*
X924371Y-78281D01*
X923751Y-77031D01*
X922820Y-75989D01*
X921581Y-75573D01*
G01X933981Y-88489D02*
X933670Y-88281D01*
Y-87865D01*
X933981Y-87656D01*
X934291Y-87865D01*
Y-88281D01*
X933981Y-88489D01*
G01X946070Y-88073D02*
X946381Y-85365D01*
X946846Y-83073D01*
X947466Y-80989D01*
X948241Y-78698D01*
X949481Y-75573D01*
X943281D01*
G01X915381Y-44864D02*
X914141Y-45281D01*
X913211Y-46322D01*
X912591Y-47572D01*
X912126Y-49239D01*
X911971Y-51114D01*
X912126Y-52989D01*
X912591Y-54656D01*
X913211Y-55906D01*
X914141Y-56948D01*
X915381Y-57364D01*
X916620Y-56948D01*
X917551Y-55906D01*
X918171Y-54656D01*
X918636Y-52989D01*
X918791Y-51114D01*
X918636Y-49239D01*
X918171Y-47572D01*
X917551Y-46322D01*
X916620Y-45281D01*
X915381Y-44864D01*
G01X927781Y-57781D02*
X927470Y-57572D01*
Y-57156D01*
X927781Y-56948D01*
X928091Y-57156D01*
Y-57572D01*
X927781Y-57781D01*
G01X942041Y-57364D02*
Y-44864D01*
X936306Y-53822D01*
X944056D01*
G01X949171Y-55490D02*
X950100Y-56531D01*
X951185Y-57156D01*
X952581Y-57364D01*
X953976Y-56948D01*
X955061Y-56115D01*
X955836Y-54656D01*
X955991Y-52989D01*
X955681Y-51323D01*
X954906Y-50281D01*
X953820Y-49448D01*
X952736Y-49239D01*
X951651Y-49448D01*
X950256Y-50281D01*
X950721Y-44864D01*
X954906D01*
G01X921581Y-14156D02*
X920341Y-14572D01*
X919411Y-15614D01*
X918791Y-16864D01*
X918326Y-18531D01*
X918171Y-20406D01*
X918326Y-22281D01*
X918791Y-23947D01*
X919411Y-25198D01*
X920341Y-26239D01*
X921581Y-26656D01*
X922820Y-26239D01*
X923751Y-25198D01*
X924371Y-23947D01*
X924836Y-22281D01*
X924991Y-20406D01*
X924836Y-18531D01*
X924371Y-16864D01*
X923751Y-15614D01*
X922820Y-14572D01*
X921581Y-14156D01*
G01X933981Y-27072D02*
X933670Y-26864D01*
Y-26447D01*
X933981Y-26239D01*
X934291Y-26447D01*
Y-26864D01*
X933981Y-27072D01*
G01X942971Y-24156D02*
X943900Y-25614D01*
X945141Y-26447D01*
X946536Y-26656D01*
X947776Y-26447D01*
X949016Y-25406D01*
X949791Y-24156D01*
X949946Y-22906D01*
X949636Y-21448D01*
X948551Y-20406D01*
X947466Y-19989D01*
X946070D01*
G01X947466D02*
X948396Y-19364D01*
X949171Y-18322D01*
X949481Y-17072D01*
X949171Y-15822D01*
X948396Y-14781D01*
X947001Y-14156D01*
X945606Y-14364D01*
X944211Y-15197D01*
G01X921581Y16553D02*
X920341Y16137D01*
X919411Y15095D01*
X918791Y13845D01*
X918326Y12178D01*
X918171Y10303D01*
X918326Y8428D01*
X918791Y6761D01*
X919411Y5511D01*
X920341Y4470D01*
X921581Y4053D01*
X922820Y4470D01*
X923751Y5511D01*
X924371Y6761D01*
X924836Y8428D01*
X924991Y10303D01*
X924836Y12178D01*
X924371Y13845D01*
X923751Y15095D01*
X922820Y16137D01*
X921581Y16553D01*
G01X933981Y3637D02*
X933670Y3845D01*
Y4261D01*
X933981Y4470D01*
X934291Y4261D01*
Y3845D01*
X933981Y3637D01*
G01X943435Y14470D02*
X944366Y15720D01*
X945451Y16345D01*
X946691Y16553D01*
X948241Y16137D01*
X949326Y15095D01*
X949636Y13845D01*
X949481Y12594D01*
X948861Y11553D01*
X945761Y9470D01*
X944366Y8011D01*
X943435Y5928D01*
X943126Y4053D01*
X949636D01*
G01X896471Y82498D02*
Y94998D01*
X899570D01*
X900811Y94373D01*
X901741Y93540D01*
X902516Y92290D01*
X903136Y90831D01*
X903291Y88748D01*
X903136Y86665D01*
X902516Y85206D01*
X901741Y83956D01*
X900811Y83123D01*
X899570Y82498D01*
X896471D01*
G01X909181D02*
Y94998D01*
X913056D01*
X914296Y94373D01*
X915071Y93540D01*
X915381Y91873D01*
X915071Y90206D01*
X914141Y89165D01*
X913056Y88539D01*
X909181D01*
G01X913056D02*
X915381Y82498D01*
G01X922821Y94998D02*
X926541D01*
G01X924681D02*
Y82498D01*
G01X922821D02*
X926541D01*
G01X933981Y94998D02*
Y82498D01*
X940181D01*
G01X946381Y94998D02*
Y82498D01*
X952581D01*
G01X977691Y93956D02*
X976761Y94581D01*
X975676Y94998D01*
X974436D01*
X973041Y94373D01*
X971956Y93331D01*
X971181Y92081D01*
X970561Y89998D01*
X970406Y88123D01*
X970716Y86248D01*
X971181Y84998D01*
X972111Y83748D01*
X973196Y82915D01*
X974281Y82498D01*
X975366D01*
X976451Y82915D01*
X977381Y83539D01*
X978156Y84372D01*
G01X983426Y82498D02*
Y94998D01*
G01X989936D02*
Y82498D01*
G01Y88748D02*
X983426D01*
G01X995206Y82498D02*
X999081Y94998D01*
X1002956Y82498D01*
G01X1001561Y86873D02*
X996600D01*
G01X1008381Y82498D02*
Y94998D01*
X1012256D01*
X1013496Y94373D01*
X1014271Y93540D01*
X1014581Y91873D01*
X1014271Y90206D01*
X1013341Y89165D01*
X1012256Y88539D01*
X1008381D01*
G01X1012256D02*
X1014581Y82498D01*
G01X1023881Y94998D02*
Y82498D01*
G01X1020316Y94998D02*
X1027446D01*
G01X1036281Y82081D02*
X1035970Y82290D01*
Y82706D01*
X1036281Y82915D01*
X1036591Y82706D01*
Y82290D01*
X1036281Y82081D01*
G01Y87706D02*
X1035970Y87915D01*
Y88331D01*
X1036281Y88539D01*
X1036591Y88331D01*
Y87915D01*
X1036281Y87706D01*
G01X1061081Y94998D02*
Y82498D01*
G01X1057516Y94998D02*
X1064646D01*
G01X1073481Y82498D02*
X1072241Y82706D01*
X1071156Y83539D01*
X1070226Y84790D01*
X1069606Y86248D01*
X1069296Y87915D01*
Y89581D01*
X1069606Y91248D01*
X1070226Y92706D01*
X1071156Y93956D01*
X1072241Y94790D01*
X1073481Y94998D01*
X1074720Y94790D01*
X1075806Y93956D01*
X1076736Y92706D01*
X1077356Y91248D01*
X1077666Y89581D01*
Y87915D01*
X1077356Y86248D01*
X1076736Y84790D01*
X1075806Y83539D01*
X1074720Y82706D01*
X1073481Y82498D01*
G01X1082781D02*
Y94998D01*
X1086501D01*
X1087741Y94373D01*
X1088671Y92915D01*
X1088981Y91248D01*
X1088671Y89581D01*
X1087896Y88331D01*
X1086501Y87706D01*
X1082781D01*
G01X1110681Y94998D02*
Y82498D01*
G01X1108511Y90831D02*
X1112851D01*
G01X1123081Y82498D02*
X1122151Y82706D01*
X1121221Y83539D01*
X1120600Y84998D01*
X1120291Y86665D01*
X1120600Y88331D01*
X1121221Y89790D01*
X1122151Y90623D01*
X1123081Y90831D01*
X1124011Y90623D01*
X1124941Y89790D01*
X1125561Y88331D01*
X1125716Y86665D01*
X1125561Y84998D01*
X1124941Y83539D01*
X1124011Y82706D01*
X1123081Y82498D01*
G01X1149120Y89165D02*
X1149741Y89790D01*
X1150206Y90831D01*
X1150516Y92290D01*
X1150206Y93540D01*
X1149586Y94373D01*
X1148501Y94998D01*
X1144316D01*
Y82498D01*
X1149431D01*
X1150516Y83331D01*
X1151136Y84581D01*
X1151446Y86040D01*
X1151136Y87498D01*
X1150206Y88748D01*
X1149120Y89165D01*
X1144316D01*
G01X1160281Y82498D02*
X1159041Y82706D01*
X1157956Y83539D01*
X1157026Y84790D01*
X1156406Y86248D01*
X1156096Y87915D01*
Y89581D01*
X1156406Y91248D01*
X1157026Y92706D01*
X1157956Y93956D01*
X1159041Y94790D01*
X1160281Y94998D01*
X1161520Y94790D01*
X1162606Y93956D01*
X1163536Y92706D01*
X1164156Y91248D01*
X1164466Y89581D01*
Y87915D01*
X1164156Y86248D01*
X1163536Y84790D01*
X1162606Y83539D01*
X1161520Y82706D01*
X1160281Y82498D01*
G01X1172681Y94998D02*
Y82498D01*
G01X1169116Y94998D02*
X1176246D01*
G01X1185081D02*
Y82498D01*
G01X1181516Y94998D02*
X1188646D01*
G01X1197481Y82498D02*
X1196241Y82706D01*
X1195156Y83539D01*
X1194226Y84790D01*
X1193606Y86248D01*
X1193296Y87915D01*
Y89581D01*
X1193606Y91248D01*
X1194226Y92706D01*
X1195156Y93956D01*
X1196241Y94790D01*
X1197481Y94998D01*
X1198720Y94790D01*
X1199806Y93956D01*
X1200736Y92706D01*
X1201356Y91248D01*
X1201666Y89581D01*
Y87915D01*
X1201356Y86248D01*
X1200736Y84790D01*
X1199806Y83539D01*
X1198720Y82706D01*
X1197481Y82498D01*
G01X1205850D02*
Y94998D01*
X1209881Y84581D01*
X1213911Y94998D01*
Y82498D01*
G01X1034731Y50657D02*
Y-281429D01*
G01X1064646Y-270867D02*
X1065731Y-271908D01*
X1066970Y-272325D01*
X1068211Y-271908D01*
X1069296Y-270659D01*
X1070071Y-268783D01*
X1070381Y-266908D01*
Y-264617D01*
X1070071Y-262742D01*
X1069296Y-261075D01*
X1068366Y-260241D01*
X1067281Y-259825D01*
X1066041Y-260241D01*
X1065111Y-261075D01*
X1064491Y-262325D01*
X1064181Y-263992D01*
X1064491Y-265450D01*
X1065266Y-266908D01*
X1066196Y-267742D01*
X1067281Y-267950D01*
X1068520Y-267533D01*
X1069451Y-266492D01*
X1070381Y-264617D01*
G01X1079681Y-259825D02*
X1078441Y-260241D01*
X1077511Y-261283D01*
X1076891Y-262533D01*
X1076426Y-264200D01*
X1076271Y-266075D01*
X1076426Y-267950D01*
X1076891Y-269617D01*
X1077511Y-270867D01*
X1078441Y-271908D01*
X1079681Y-272325D01*
X1080920Y-271908D01*
X1081851Y-270867D01*
X1082471Y-269617D01*
X1082936Y-267950D01*
X1083091Y-266075D01*
X1082936Y-264200D01*
X1082471Y-262533D01*
X1081851Y-261283D01*
X1080920Y-260241D01*
X1079681Y-259825D01*
G01X1092081Y-272741D02*
X1091770Y-272533D01*
Y-272117D01*
X1092081Y-271908D01*
X1092391Y-272117D01*
Y-272533D01*
X1092081Y-272741D01*
G01X1104481Y-259825D02*
X1103241Y-260241D01*
X1102311Y-261283D01*
X1101691Y-262533D01*
X1101226Y-264200D01*
X1101071Y-266075D01*
X1101226Y-267950D01*
X1101691Y-269617D01*
X1102311Y-270867D01*
X1103241Y-271908D01*
X1104481Y-272325D01*
X1105720Y-271908D01*
X1106651Y-270867D01*
X1107271Y-269617D01*
X1107736Y-267950D01*
X1107891Y-266075D01*
X1107736Y-264200D01*
X1107271Y-262533D01*
X1106651Y-261283D01*
X1105720Y-260241D01*
X1104481Y-259825D01*
G01X1116881D02*
X1115641Y-260241D01*
X1114711Y-261283D01*
X1114091Y-262533D01*
X1113626Y-264200D01*
X1113471Y-266075D01*
X1113626Y-267950D01*
X1114091Y-269617D01*
X1114711Y-270867D01*
X1115641Y-271908D01*
X1116881Y-272325D01*
X1118120Y-271908D01*
X1119051Y-270867D01*
X1119671Y-269617D01*
X1120136Y-267950D01*
X1120291Y-266075D01*
X1120136Y-264200D01*
X1119671Y-262533D01*
X1119051Y-261283D01*
X1118120Y-260241D01*
X1116881Y-259825D01*
G01X1129281D02*
X1128041Y-260241D01*
X1127111Y-261283D01*
X1126491Y-262533D01*
X1126026Y-264200D01*
X1125871Y-266075D01*
X1126026Y-267950D01*
X1126491Y-269617D01*
X1127111Y-270867D01*
X1128041Y-271908D01*
X1129281Y-272325D01*
X1130520Y-271908D01*
X1131451Y-270867D01*
X1132071Y-269617D01*
X1132536Y-267950D01*
X1132691Y-266075D01*
X1132536Y-264200D01*
X1132071Y-262533D01*
X1131451Y-261283D01*
X1130520Y-260241D01*
X1129281Y-259825D01*
G01X1064646Y-240158D02*
X1065731Y-241200D01*
X1066970Y-241616D01*
X1068211Y-241200D01*
X1069296Y-239950D01*
X1070071Y-238074D01*
X1070381Y-236200D01*
Y-233908D01*
X1070071Y-232033D01*
X1069296Y-230366D01*
X1068366Y-229533D01*
X1067281Y-229116D01*
X1066041Y-229533D01*
X1065111Y-230366D01*
X1064491Y-231616D01*
X1064181Y-233283D01*
X1064491Y-234741D01*
X1065266Y-236200D01*
X1066196Y-237033D01*
X1067281Y-237241D01*
X1068520Y-236825D01*
X1069451Y-235783D01*
X1070381Y-233908D01*
G01X1079681Y-229116D02*
X1078441Y-229533D01*
X1077511Y-230574D01*
X1076891Y-231824D01*
X1076426Y-233491D01*
X1076271Y-235366D01*
X1076426Y-237241D01*
X1076891Y-238908D01*
X1077511Y-240158D01*
X1078441Y-241200D01*
X1079681Y-241616D01*
X1080920Y-241200D01*
X1081851Y-240158D01*
X1082471Y-238908D01*
X1082936Y-237241D01*
X1083091Y-235366D01*
X1082936Y-233491D01*
X1082471Y-231824D01*
X1081851Y-230574D01*
X1080920Y-229533D01*
X1079681Y-229116D01*
G01X1092081Y-242033D02*
X1091770Y-241824D01*
Y-241408D01*
X1092081Y-241200D01*
X1092391Y-241408D01*
Y-241824D01*
X1092081Y-242033D01*
G01X1104481Y-229116D02*
X1103241Y-229533D01*
X1102311Y-230574D01*
X1101691Y-231824D01*
X1101226Y-233491D01*
X1101071Y-235366D01*
X1101226Y-237241D01*
X1101691Y-238908D01*
X1102311Y-240158D01*
X1103241Y-241200D01*
X1104481Y-241616D01*
X1105720Y-241200D01*
X1106651Y-240158D01*
X1107271Y-238908D01*
X1107736Y-237241D01*
X1107891Y-235366D01*
X1107736Y-233491D01*
X1107271Y-231824D01*
X1106651Y-230574D01*
X1105720Y-229533D01*
X1104481Y-229116D01*
G01X1116881D02*
X1115641Y-229533D01*
X1114711Y-230574D01*
X1114091Y-231824D01*
X1113626Y-233491D01*
X1113471Y-235366D01*
X1113626Y-237241D01*
X1114091Y-238908D01*
X1114711Y-240158D01*
X1115641Y-241200D01*
X1116881Y-241616D01*
X1118120Y-241200D01*
X1119051Y-240158D01*
X1119671Y-238908D01*
X1120136Y-237241D01*
X1120291Y-235366D01*
X1120136Y-233491D01*
X1119671Y-231824D01*
X1119051Y-230574D01*
X1118120Y-229533D01*
X1116881Y-229116D01*
G01X1129281D02*
X1128041Y-229533D01*
X1127111Y-230574D01*
X1126491Y-231824D01*
X1126026Y-233491D01*
X1125871Y-235366D01*
X1126026Y-237241D01*
X1126491Y-238908D01*
X1127111Y-240158D01*
X1128041Y-241200D01*
X1129281Y-241616D01*
X1130520Y-241200D01*
X1131451Y-240158D01*
X1132071Y-238908D01*
X1132536Y-237241D01*
X1132691Y-235366D01*
X1132536Y-233491D01*
X1132071Y-231824D01*
X1131451Y-230574D01*
X1130520Y-229533D01*
X1129281Y-229116D01*
G01X1051781Y31907D02*
Y44407D01*
X1055656D01*
X1056896Y43782D01*
X1057671Y42949D01*
X1057981Y41282D01*
X1057671Y39616D01*
X1056741Y38574D01*
X1055656Y37949D01*
X1051781D01*
G01X1055656D02*
X1057981Y31907D01*
G01X1067281D02*
X1066041Y32116D01*
X1064956Y32949D01*
X1064026Y34199D01*
X1063406Y35657D01*
X1063096Y37324D01*
Y38991D01*
X1063406Y40657D01*
X1064026Y42116D01*
X1064956Y43366D01*
X1066041Y44199D01*
X1067281Y44407D01*
X1068520Y44199D01*
X1069606Y43366D01*
X1070536Y42116D01*
X1071156Y40657D01*
X1071466Y38991D01*
Y37324D01*
X1071156Y35657D01*
X1070536Y34199D01*
X1069606Y32949D01*
X1068520Y32116D01*
X1067281Y31907D01*
G01X1079681Y44407D02*
Y31907D01*
G01X1076116Y44407D02*
X1083246D01*
G01X1088206Y31907D02*
X1092081Y44407D01*
X1095956Y31907D01*
G01X1094561Y36282D02*
X1089600D01*
G01X1104481Y44407D02*
Y31907D01*
G01X1100916Y44407D02*
X1108046D01*
G01X1115021D02*
X1118741D01*
G01X1116881D02*
Y31907D01*
G01X1115021D02*
X1118741D01*
G01X1129281D02*
X1128041Y32116D01*
X1126956Y32949D01*
X1126026Y34199D01*
X1125406Y35657D01*
X1125096Y37324D01*
Y38991D01*
X1125406Y40657D01*
X1126026Y42116D01*
X1126956Y43366D01*
X1128041Y44199D01*
X1129281Y44407D01*
X1130520Y44199D01*
X1131606Y43366D01*
X1132536Y42116D01*
X1133156Y40657D01*
X1133466Y38991D01*
Y37324D01*
X1133156Y35657D01*
X1132536Y34199D01*
X1131606Y32949D01*
X1130520Y32116D01*
X1129281Y31907D01*
G01X1138116D02*
Y44407D01*
X1145246Y31907D01*
Y44407D01*
G01X1096266Y-206741D02*
X1100296D01*
G01X1096266Y-176032D02*
X1100296D01*
G01X1096266Y-145324D02*
X1100296D01*
G01X1096266Y-114615D02*
X1100296D01*
G01X1096266Y-83906D02*
X1100296D01*
G01X1096266Y-53198D02*
X1100296D01*
G01X1096266Y-22489D02*
X1100296D01*
G01X1096266Y8220D02*
X1100296D01*
G01X1161831Y50657D02*
Y-281429D01*
G01X1166016Y-210907D02*
Y-198407D01*
X1173146Y-210907D01*
Y-198407D01*
G01X1181981Y-210907D02*
X1180741Y-210699D01*
X1179656Y-209866D01*
X1178726Y-208616D01*
X1178106Y-207157D01*
X1177796Y-205491D01*
Y-203824D01*
X1178106Y-202157D01*
X1178726Y-200699D01*
X1179656Y-199449D01*
X1180741Y-198616D01*
X1181981Y-198407D01*
X1183220Y-198616D01*
X1184306Y-199449D01*
X1185236Y-200699D01*
X1185856Y-202157D01*
X1186166Y-203824D01*
Y-205491D01*
X1185856Y-207157D01*
X1185236Y-208616D01*
X1184306Y-209866D01*
X1183220Y-210699D01*
X1181981Y-210907D01*
G01X1190816D02*
Y-198407D01*
X1197946Y-210907D01*
Y-198407D01*
G01X1204766Y-206741D02*
X1208796D01*
G01X1216081Y-210907D02*
Y-198407D01*
X1219801D01*
X1221041Y-199033D01*
X1221971Y-200491D01*
X1222281Y-202157D01*
X1221971Y-203824D01*
X1221196Y-205074D01*
X1219801Y-205700D01*
X1216081D01*
G01X1228481Y-198407D02*
Y-210907D01*
X1234681D01*
G01X1240106D02*
X1243981Y-198407D01*
X1247856Y-210907D01*
G01X1246461Y-206533D02*
X1241500D01*
G01X1256381Y-198407D02*
Y-210907D01*
G01X1252816Y-198407D02*
X1259946D01*
G01X1271881Y-210907D02*
X1265681D01*
Y-198407D01*
X1271881D01*
G01X1269401Y-204449D02*
X1265681D01*
G01X1277771Y-210907D02*
Y-198407D01*
X1280870D01*
X1282111Y-199033D01*
X1283041Y-199866D01*
X1283816Y-201116D01*
X1284436Y-202574D01*
X1284591Y-204657D01*
X1284436Y-206741D01*
X1283816Y-208199D01*
X1283041Y-209450D01*
X1282111Y-210283D01*
X1280870Y-210907D01*
X1277771D01*
G01X1191281Y-272325D02*
Y-259825D01*
X1195001D01*
X1196241Y-260450D01*
X1197171Y-261908D01*
X1197481Y-263575D01*
X1197171Y-265241D01*
X1196396Y-266492D01*
X1195001Y-267117D01*
X1191281D01*
G01X1203681Y-259825D02*
Y-272325D01*
X1209881D01*
G01X1215306D02*
X1219181Y-259825D01*
X1223056Y-272325D01*
G01X1221661Y-267950D02*
X1216700D01*
G01X1231581Y-259825D02*
Y-272325D01*
G01X1228016Y-259825D02*
X1235146D01*
G01X1247081Y-272325D02*
X1240881D01*
Y-259825D01*
X1247081D01*
G01X1244601Y-265866D02*
X1240881D01*
G01X1252971Y-272325D02*
Y-259825D01*
X1256070D01*
X1257311Y-260450D01*
X1258241Y-261283D01*
X1259016Y-262533D01*
X1259636Y-263992D01*
X1259791Y-266075D01*
X1259636Y-268158D01*
X1259016Y-269617D01*
X1258241Y-270867D01*
X1257311Y-271700D01*
X1256070Y-272325D01*
X1252971D01*
G01X1191281Y-241616D02*
Y-229116D01*
X1195001D01*
X1196241Y-229741D01*
X1197171Y-231200D01*
X1197481Y-232866D01*
X1197171Y-234533D01*
X1196396Y-235783D01*
X1195001Y-236408D01*
X1191281D01*
G01X1203681Y-229116D02*
Y-241616D01*
X1209881D01*
G01X1215306D02*
X1219181Y-229116D01*
X1223056Y-241616D01*
G01X1221661Y-237241D02*
X1216700D01*
G01X1231581Y-229116D02*
Y-241616D01*
G01X1228016Y-229116D02*
X1235146D01*
G01X1247081Y-241616D02*
X1240881D01*
Y-229116D01*
X1247081D01*
G01X1244601Y-235157D02*
X1240881D01*
G01X1252971Y-241616D02*
Y-229116D01*
X1256070D01*
X1257311Y-229741D01*
X1258241Y-230574D01*
X1259016Y-231824D01*
X1259636Y-233283D01*
X1259791Y-235366D01*
X1259636Y-237450D01*
X1259016Y-238908D01*
X1258241Y-240158D01*
X1257311Y-240991D01*
X1256070Y-241616D01*
X1252971D01*
G01X1191281Y-180199D02*
Y-167699D01*
X1195001D01*
X1196241Y-168324D01*
X1197171Y-169782D01*
X1197481Y-171449D01*
X1197171Y-173115D01*
X1196396Y-174366D01*
X1195001Y-174991D01*
X1191281D01*
G01X1203681Y-167699D02*
Y-180199D01*
X1209881D01*
G01X1215306D02*
X1219181Y-167699D01*
X1223056Y-180199D01*
G01X1221661Y-175824D02*
X1216700D01*
G01X1231581Y-167699D02*
Y-180199D01*
G01X1228016Y-167699D02*
X1235146D01*
G01X1247081Y-180199D02*
X1240881D01*
Y-167699D01*
X1247081D01*
G01X1244601Y-173740D02*
X1240881D01*
G01X1252971Y-180199D02*
Y-167699D01*
X1256070D01*
X1257311Y-168324D01*
X1258241Y-169157D01*
X1259016Y-170407D01*
X1259636Y-171866D01*
X1259791Y-173949D01*
X1259636Y-176032D01*
X1259016Y-177491D01*
X1258241Y-178741D01*
X1257311Y-179574D01*
X1256070Y-180199D01*
X1252971D01*
G01X1191281Y-149490D02*
Y-136990D01*
X1195001D01*
X1196241Y-137615D01*
X1197171Y-139074D01*
X1197481Y-140740D01*
X1197171Y-142407D01*
X1196396Y-143657D01*
X1195001Y-144282D01*
X1191281D01*
G01X1203681Y-136990D02*
Y-149490D01*
X1209881D01*
G01X1215306D02*
X1219181Y-136990D01*
X1223056Y-149490D01*
G01X1221661Y-145115D02*
X1216700D01*
G01X1231581Y-136990D02*
Y-149490D01*
G01X1228016Y-136990D02*
X1235146D01*
G01X1247081Y-149490D02*
X1240881D01*
Y-136990D01*
X1247081D01*
G01X1244601Y-143031D02*
X1240881D01*
G01X1252971Y-149490D02*
Y-136990D01*
X1256070D01*
X1257311Y-137615D01*
X1258241Y-138448D01*
X1259016Y-139698D01*
X1259636Y-141157D01*
X1259791Y-143240D01*
X1259636Y-145324D01*
X1259016Y-146782D01*
X1258241Y-148032D01*
X1257311Y-148865D01*
X1256070Y-149490D01*
X1252971D01*
G01X1191281Y-118781D02*
Y-106281D01*
X1195001D01*
X1196241Y-106907D01*
X1197171Y-108365D01*
X1197481Y-110031D01*
X1197171Y-111698D01*
X1196396Y-112948D01*
X1195001Y-113574D01*
X1191281D01*
G01X1203681Y-106281D02*
Y-118781D01*
X1209881D01*
G01X1215306D02*
X1219181Y-106281D01*
X1223056Y-118781D01*
G01X1221661Y-114407D02*
X1216700D01*
G01X1231581Y-106281D02*
Y-118781D01*
G01X1228016Y-106281D02*
X1235146D01*
G01X1247081Y-118781D02*
X1240881D01*
Y-106281D01*
X1247081D01*
G01X1244601Y-112323D02*
X1240881D01*
G01X1252971Y-118781D02*
Y-106281D01*
X1256070D01*
X1257311Y-106907D01*
X1258241Y-107740D01*
X1259016Y-108990D01*
X1259636Y-110448D01*
X1259791Y-112531D01*
X1259636Y-114615D01*
X1259016Y-116073D01*
X1258241Y-117324D01*
X1257311Y-118157D01*
X1256070Y-118781D01*
X1252971D01*
G01X1191281Y-88073D02*
Y-75573D01*
X1195001D01*
X1196241Y-76198D01*
X1197171Y-77656D01*
X1197481Y-79323D01*
X1197171Y-80989D01*
X1196396Y-82240D01*
X1195001Y-82865D01*
X1191281D01*
G01X1203681Y-75573D02*
Y-88073D01*
X1209881D01*
G01X1215306D02*
X1219181Y-75573D01*
X1223056Y-88073D01*
G01X1221661Y-83698D02*
X1216700D01*
G01X1231581Y-75573D02*
Y-88073D01*
G01X1228016Y-75573D02*
X1235146D01*
G01X1247081Y-88073D02*
X1240881D01*
Y-75573D01*
X1247081D01*
G01X1244601Y-81614D02*
X1240881D01*
G01X1252971Y-88073D02*
Y-75573D01*
X1256070D01*
X1257311Y-76198D01*
X1258241Y-77031D01*
X1259016Y-78281D01*
X1259636Y-79740D01*
X1259791Y-81823D01*
X1259636Y-83906D01*
X1259016Y-85365D01*
X1258241Y-86615D01*
X1257311Y-87448D01*
X1256070Y-88073D01*
X1252971D01*
G01X1191281Y-57364D02*
Y-44864D01*
X1195001D01*
X1196241Y-45489D01*
X1197171Y-46948D01*
X1197481Y-48614D01*
X1197171Y-50281D01*
X1196396Y-51531D01*
X1195001Y-52156D01*
X1191281D01*
G01X1203681Y-44864D02*
Y-57364D01*
X1209881D01*
G01X1215306D02*
X1219181Y-44864D01*
X1223056Y-57364D01*
G01X1221661Y-52989D02*
X1216700D01*
G01X1231581Y-44864D02*
Y-57364D01*
G01X1228016Y-44864D02*
X1235146D01*
G01X1247081Y-57364D02*
X1240881D01*
Y-44864D01*
X1247081D01*
G01X1244601Y-50906D02*
X1240881D01*
G01X1252971Y-57364D02*
Y-44864D01*
X1256070D01*
X1257311Y-45489D01*
X1258241Y-46322D01*
X1259016Y-47572D01*
X1259636Y-49031D01*
X1259791Y-51114D01*
X1259636Y-53198D01*
X1259016Y-54656D01*
X1258241Y-55906D01*
X1257311Y-56739D01*
X1256070Y-57364D01*
X1252971D01*
G01X1191281Y-26656D02*
Y-14156D01*
X1195001D01*
X1196241Y-14781D01*
X1197171Y-16239D01*
X1197481Y-17906D01*
X1197171Y-19572D01*
X1196396Y-20822D01*
X1195001Y-21448D01*
X1191281D01*
G01X1203681Y-14156D02*
Y-26656D01*
X1209881D01*
G01X1215306D02*
X1219181Y-14156D01*
X1223056Y-26656D01*
G01X1221661Y-22281D02*
X1216700D01*
G01X1231581Y-14156D02*
Y-26656D01*
G01X1228016Y-14156D02*
X1235146D01*
G01X1247081Y-26656D02*
X1240881D01*
Y-14156D01*
X1247081D01*
G01X1244601Y-20197D02*
X1240881D01*
G01X1252971Y-26656D02*
Y-14156D01*
X1256070D01*
X1257311Y-14781D01*
X1258241Y-15614D01*
X1259016Y-16864D01*
X1259636Y-18322D01*
X1259791Y-20406D01*
X1259636Y-22489D01*
X1259016Y-23947D01*
X1258241Y-25198D01*
X1257311Y-26031D01*
X1256070Y-26656D01*
X1252971D01*
G01X1191281Y4053D02*
Y16553D01*
X1195001D01*
X1196241Y15928D01*
X1197171Y14470D01*
X1197481Y12803D01*
X1197171Y11137D01*
X1196396Y9886D01*
X1195001Y9261D01*
X1191281D01*
G01X1203681Y16553D02*
Y4053D01*
X1209881D01*
G01X1215306D02*
X1219181Y16553D01*
X1223056Y4053D01*
G01X1221661Y8428D02*
X1216700D01*
G01X1231581Y16553D02*
Y4053D01*
G01X1228016Y16553D02*
X1235146D01*
G01X1247081Y4053D02*
X1240881D01*
Y16553D01*
X1247081D01*
G01X1244601Y10512D02*
X1240881D01*
G01X1252971Y4053D02*
Y16553D01*
X1256070D01*
X1257311Y15928D01*
X1258241Y15095D01*
X1259016Y13845D01*
X1259636Y12386D01*
X1259791Y10303D01*
X1259636Y8220D01*
X1259016Y6761D01*
X1258241Y5511D01*
X1257311Y4678D01*
X1256070Y4053D01*
X1252971D01*
G01X1191281Y31907D02*
Y44407D01*
X1195001D01*
X1196241Y43782D01*
X1197171Y42324D01*
X1197481Y40657D01*
X1197171Y38991D01*
X1196396Y37741D01*
X1195001Y37115D01*
X1191281D01*
G01X1203681Y44407D02*
Y31907D01*
X1209881D01*
G01X1215306D02*
X1219181Y44407D01*
X1223056Y31907D01*
G01X1221661Y36282D02*
X1216700D01*
G01X1231581Y44407D02*
Y31907D01*
G01X1228016Y44407D02*
X1235146D01*
G01X1247081Y31907D02*
X1240881D01*
Y44407D01*
X1247081D01*
G01X1244601Y38366D02*
X1240881D01*
G01X1252971Y31907D02*
Y44407D01*
X1256070D01*
X1257311Y43782D01*
X1258241Y42949D01*
X1259016Y41699D01*
X1259636Y40241D01*
X1259791Y38157D01*
X1259636Y36074D01*
X1259016Y34616D01*
X1258241Y33365D01*
X1257311Y32532D01*
X1256070Y31907D01*
X1252971D01*
G01X1288931Y50657D02*
Y-281429D01*
G01X1329541Y-272325D02*
Y-259825D01*
X1323806Y-268783D01*
X1331556D01*
G01X1321481Y-241616D02*
Y-229116D01*
X1319621Y-231616D01*
G01Y-241616D02*
X1323341D01*
G01X1330935Y-236408D02*
X1332021Y-234949D01*
X1332951Y-234116D01*
X1334191Y-233700D01*
X1335276Y-234116D01*
X1336051Y-234949D01*
X1336671Y-236200D01*
X1336826Y-237658D01*
X1336671Y-238908D01*
X1336051Y-240158D01*
X1335120Y-241200D01*
X1334036Y-241616D01*
X1332796Y-241200D01*
X1331711Y-239950D01*
X1331091Y-238074D01*
X1330935Y-235991D01*
X1331246Y-233283D01*
X1331711Y-231824D01*
X1332485Y-230366D01*
X1333570Y-229324D01*
X1334656Y-229116D01*
X1335741Y-229533D01*
X1336516Y-230574D01*
G01X1324735Y-200491D02*
X1325666Y-199241D01*
X1326751Y-198616D01*
X1327991Y-198407D01*
X1329541Y-198824D01*
X1330626Y-199866D01*
X1330936Y-201116D01*
X1330781Y-202366D01*
X1330161Y-203407D01*
X1327061Y-205491D01*
X1325666Y-206949D01*
X1324735Y-209033D01*
X1324426Y-210907D01*
X1330936D01*
G01X1329541Y-180199D02*
Y-167699D01*
X1323806Y-176657D01*
X1331556D01*
G01X1324271Y-147616D02*
X1325200Y-148657D01*
X1326285Y-149282D01*
X1327681Y-149490D01*
X1329076Y-149074D01*
X1330161Y-148241D01*
X1330936Y-146782D01*
X1331091Y-145115D01*
X1330781Y-143449D01*
X1330006Y-142407D01*
X1328920Y-141574D01*
X1327836Y-141365D01*
X1326751Y-141574D01*
X1325356Y-142407D01*
X1325821Y-136990D01*
X1330006D01*
G01X1321481Y-118781D02*
Y-106281D01*
X1319621Y-108781D01*
G01Y-118781D02*
X1323341D01*
G01X1333881Y-106281D02*
X1332641Y-106698D01*
X1331711Y-107740D01*
X1331091Y-108990D01*
X1330626Y-110657D01*
X1330471Y-112531D01*
X1330626Y-114407D01*
X1331091Y-116073D01*
X1331711Y-117324D01*
X1332641Y-118365D01*
X1333881Y-118781D01*
X1335120Y-118365D01*
X1336051Y-117324D01*
X1336671Y-116073D01*
X1337136Y-114407D01*
X1337291Y-112531D01*
X1337136Y-110657D01*
X1336671Y-108990D01*
X1336051Y-107740D01*
X1335120Y-106698D01*
X1333881Y-106281D01*
G01X1324735Y-77656D02*
X1325666Y-76406D01*
X1326751Y-75781D01*
X1327991Y-75573D01*
X1329541Y-75989D01*
X1330626Y-77031D01*
X1330936Y-78281D01*
X1330781Y-79531D01*
X1330161Y-80573D01*
X1327061Y-82656D01*
X1325666Y-84115D01*
X1324735Y-86198D01*
X1324426Y-88073D01*
X1330936D01*
G01X1327681Y-57364D02*
X1328766Y-57156D01*
X1330006Y-56531D01*
X1330781Y-55490D01*
X1331091Y-54031D01*
X1330781Y-52573D01*
X1329851Y-51323D01*
X1328456Y-50697D01*
X1326906D01*
X1325976Y-50281D01*
X1325200Y-49239D01*
X1324891Y-47781D01*
X1325356Y-46322D01*
X1326441Y-45281D01*
X1327681Y-44864D01*
X1328920Y-45281D01*
X1330006Y-46322D01*
X1330471Y-47781D01*
X1330161Y-49239D01*
X1329386Y-50281D01*
X1328456Y-50697D01*
X1326906D01*
X1325511Y-51323D01*
X1324581Y-52573D01*
X1324271Y-54031D01*
X1324581Y-55490D01*
X1325356Y-56531D01*
X1326596Y-57156D01*
X1327681Y-57364D01*
G01X1315281Y-26656D02*
Y-14156D01*
X1313421Y-16656D01*
G01Y-26656D02*
X1317141D01*
G01X1324271Y-24781D02*
X1325200Y-25822D01*
X1326285Y-26447D01*
X1327681Y-26656D01*
X1329076Y-26239D01*
X1330161Y-25406D01*
X1330936Y-23947D01*
X1331091Y-22281D01*
X1330781Y-20614D01*
X1330006Y-19572D01*
X1328920Y-18739D01*
X1327836Y-18531D01*
X1326751Y-18739D01*
X1325356Y-19572D01*
X1325821Y-14156D01*
X1330006D01*
G01X1337446Y-25198D02*
X1338531Y-26239D01*
X1339770Y-26656D01*
X1341011Y-26239D01*
X1342096Y-24989D01*
X1342871Y-23114D01*
X1343181Y-21239D01*
Y-18947D01*
X1342871Y-17072D01*
X1342096Y-15406D01*
X1341166Y-14572D01*
X1340081Y-14156D01*
X1338841Y-14572D01*
X1337911Y-15406D01*
X1337291Y-16656D01*
X1336981Y-18322D01*
X1337291Y-19780D01*
X1338066Y-21239D01*
X1338996Y-22072D01*
X1340081Y-22281D01*
X1341320Y-21864D01*
X1342251Y-20822D01*
X1343181Y-18947D01*
G01X1323341Y4053D02*
Y16553D01*
X1317606Y7595D01*
X1325356D01*
G01X1333881Y16553D02*
X1332641Y16137D01*
X1331711Y15095D01*
X1331091Y13845D01*
X1330626Y12178D01*
X1330471Y10303D01*
X1330626Y8428D01*
X1331091Y6761D01*
X1331711Y5511D01*
X1332641Y4470D01*
X1333881Y4053D01*
X1335120Y4470D01*
X1336051Y5511D01*
X1336671Y6761D01*
X1337136Y8428D01*
X1337291Y10303D01*
X1337136Y12178D01*
X1336671Y13845D01*
X1336051Y15095D01*
X1335120Y16137D01*
X1333881Y16553D01*
G01X1315281Y31907D02*
X1314041Y32116D01*
X1312956Y32949D01*
X1312026Y34199D01*
X1311406Y35657D01*
X1311096Y37324D01*
Y38991D01*
X1311406Y40657D01*
X1312026Y42116D01*
X1312956Y43366D01*
X1314041Y44199D01*
X1315281Y44407D01*
X1316520Y44199D01*
X1317606Y43366D01*
X1318536Y42116D01*
X1319156Y40657D01*
X1319466Y38991D01*
Y37324D01*
X1319156Y35657D01*
X1318536Y34199D01*
X1317606Y32949D01*
X1316520Y32116D01*
X1315281Y31907D01*
G01X1316520Y35241D02*
X1318381Y31907D01*
G01X1327681Y44407D02*
Y31907D01*
G01X1324116Y44407D02*
X1331246D01*
G01X1340081Y31907D02*
Y37532D01*
X1336981Y44407D01*
G01X1343181D02*
X1340081Y37532D01*
G01X1433441Y-162554D02*
Y-141017D01*
X1493441D01*
Y-162554D01*
X1433441D01*
G01Y-139461D02*
Y10499D01*
X1493441D01*
Y-139461D01*
X1433441D01*
G01Y12055D02*
Y33592D01*
X1493441D01*
Y12055D01*
X1433441D01*
G54D23*
X322835Y-17323D03*
D03*
X356299D03*
D03*
X389764D03*
D03*
X423228D03*
D03*
X450394D03*
D03*
G54D14*
X119594Y-21118D03*
D03*
X163594Y-54929D03*
D03*
X163850Y-79433D03*
D03*
X163697Y-21067D03*
D03*
X225591Y-206693D03*
D03*
X210236D03*
D03*
X207488Y-56106D03*
D03*
X207232Y-79228D03*
D03*
X206823Y-20760D03*
D03*
X242913Y-154724D03*
D03*
X250768Y-56209D03*
D03*
X250512Y-79075D03*
D03*
Y-21220D03*
D03*
X264961Y-154724D03*
D03*
G54D15*
X119594Y-21118D03*
X163594Y-54929D03*
X163850Y-79433D03*
X163697Y-21067D03*
X207488Y-56106D03*
X207232Y-79228D03*
X206823Y-20760D03*
X250768Y-56209D03*
X250512Y-79075D03*
Y-21220D03*
X788281Y-112531D03*
G54D24*
X322835Y-17323D03*
X356299D03*
X389764D03*
X423228D03*
X450394D03*
X788281Y-143240D03*
G54D25*
X371154Y-222441D03*
D03*
X356406D03*
D03*
X349500Y-66142D03*
D03*
X408768Y-222441D03*
D03*
X431390D03*
D03*
X432909Y-78346D03*
D03*
X503331Y-222878D03*
D03*
X546933D03*
D03*
G54D16*
X142087Y-194142D03*
D03*
Y-158709D03*
D03*
X179488Y-194142D03*
D03*
Y-158709D03*
D03*
G54D26*
X371154Y-222441D03*
X356406D03*
X349500Y-66142D03*
X408768Y-222441D03*
X431390D03*
X432909Y-78346D03*
X503331Y-222878D03*
X546933D03*
X788281Y-51114D03*
G54D17*
X142087Y-194142D03*
Y-158709D03*
X179488Y-194142D03*
Y-158709D03*
G54D27*
X417717Y-126378D03*
D03*
Y-120866D03*
D03*
G54D18*
X225591Y-206693D03*
X210236D03*
X242913Y-154724D03*
X264961D03*
X788281Y-173949D03*
G54D19*
X305244Y-208071D03*
D03*
X295866Y-193504D03*
D03*
X303346Y-193516D03*
D03*
X307291Y-178307D03*
D03*
X290630Y-170945D03*
D03*
X303346Y-161626D03*
D03*
X304913Y-170945D03*
D03*
X304035Y-144886D03*
D03*
Y-148764D03*
D03*
X316437Y-86024D03*
D03*
X309776D03*
D03*
X306693Y-83209D03*
D03*
Y-50260D03*
D03*
X329528Y-202953D03*
D03*
X322709Y-208071D03*
D03*
X329791D03*
D03*
X340311Y-202953D03*
D03*
X324016Y-213386D03*
D03*
X346850Y-178701D03*
D03*
X333071Y-174409D03*
D03*
X320846Y-181496D03*
D03*
X324409Y-196850D03*
D03*
X320846Y-144902D03*
D03*
X340327Y-170945D03*
D03*
X324378Y-133110D03*
D03*
X336677Y-128543D03*
D03*
X339669Y-114823D03*
D03*
X326181Y-118307D03*
D03*
X339669Y-100114D03*
D03*
X372350Y-206299D03*
D03*
X355209D03*
D03*
X357402Y-193701D03*
D03*
X370299Y-163701D03*
D03*
X369291Y-155118D03*
D03*
X351181Y-131346D03*
D03*
X363571Y-135630D03*
D03*
X364008Y-119039D03*
D03*
X353504Y-139331D03*
D03*
X358720Y-103504D03*
D03*
X362240D03*
D03*
X367547Y-95500D03*
D03*
Y-100327D03*
D03*
X371075Y-95500D03*
D03*
Y-100268D03*
D03*
X364961Y-83858D03*
D03*
X383681Y-223437D03*
D03*
X383606Y-210839D03*
D03*
X398650Y-223579D03*
D03*
X398484Y-210823D03*
D03*
X398425Y-206339D03*
D03*
Y-218937D03*
D03*
X395370Y-176319D03*
D03*
X396063Y-197835D03*
D03*
X398008Y-188386D03*
D03*
X396063Y-193110D03*
D03*
X396598Y-181650D03*
D03*
X387815Y-143268D03*
D03*
X395768Y-161220D03*
D03*
X383882Y-143268D03*
D03*
X388622Y-158232D03*
D03*
X390634Y-151142D03*
D03*
X401969Y-134055D03*
D03*
X395079Y-138976D03*
D03*
X381130Y-127402D03*
D03*
X392559Y-103504D03*
D03*
X394890Y-89370D03*
D03*
X425984Y-210736D03*
D03*
X422685Y-161280D03*
D03*
X406811Y-158209D03*
D03*
X426575Y-157795D03*
D03*
X426402Y-95819D03*
D03*
X445472Y-200528D03*
D03*
X454626Y-202953D03*
D03*
X456752Y-181088D03*
D03*
X444488Y-161280D03*
D03*
X458465Y-125685D03*
D03*
X452362Y-118898D03*
D03*
X449213Y-122441D03*
D03*
X447244Y-99213D03*
D03*
X459843Y-85394D03*
D03*
X442717Y-92335D03*
D03*
X445079Y-70079D03*
D03*
X455906Y-52362D03*
D03*
X480591Y-193425D03*
D03*
X470669Y-191142D03*
D03*
X473661Y-197205D03*
D03*
X475591Y-175787D03*
D03*
X482953Y-178740D03*
D03*
X488382D03*
D03*
X476181Y-146650D03*
D03*
X481803Y-153815D03*
D03*
X484252Y-167323D03*
D03*
X476067Y-127362D03*
D03*
X485433Y-122441D03*
D03*
X491811Y-104965D03*
D03*
X491630Y-96189D03*
D03*
X475197Y-37402D03*
D03*
X469083Y-44118D03*
D03*
X473335Y-14961D03*
D03*
X479134Y-26783D03*
D03*
X483071Y-26787D03*
D03*
X495008Y-202846D03*
D03*
X514319Y-193508D03*
D03*
X518835Y-193925D03*
D03*
X516142Y-175787D03*
D03*
X505118Y-172835D03*
D03*
X508780Y-178740D03*
D03*
X516142Y-170669D03*
D03*
X520079Y-156669D03*
D03*
X506359Y-153150D03*
D03*
X506299Y-146850D03*
D03*
X520079Y-121236D03*
D03*
X495276Y-117126D03*
D03*
X505906Y-141929D03*
D03*
Y-137205D03*
D03*
Y-132480D03*
D03*
X506299Y-125197D03*
D03*
X495138Y-102433D03*
D03*
X492299Y-100039D03*
D03*
X495276Y-106890D03*
D03*
X517898Y-69941D03*
D03*
X496937Y-44102D03*
D03*
X512638Y-52677D03*
D03*
Y-48807D03*
D03*
X492807Y-14961D03*
D03*
X523894Y-186638D03*
D03*
X537043Y-194815D03*
D03*
X525709Y-171378D03*
D03*
X525307Y-176268D03*
D03*
X538083Y-156693D03*
D03*
X522728Y-150787D03*
D03*
X521260Y-146850D03*
D03*
X522728Y-142913D03*
D03*
X538083Y-121260D03*
D03*
X531642Y-127165D03*
D03*
X521260Y-138976D03*
D03*
X522728Y-135039D03*
D03*
X521260Y-131102D03*
D03*
X532024Y-101457D03*
D03*
X539055D03*
D03*
X538941Y-105272D03*
D03*
X531984Y-109287D03*
D03*
X535173Y-107350D03*
D03*
X538307Y-109386D03*
D03*
X535331Y-102724D03*
D03*
X537539Y-66555D03*
D03*
X548669Y-71850D03*
D03*
X548752Y-77638D03*
D03*
X548646Y-60039D03*
D03*
X548732Y-64764D03*
D03*
X534016Y-51008D03*
D03*
X537268Y-51098D03*
D03*
X538972Y-38996D03*
D03*
X539295Y-43421D03*
D03*
X525354Y-54528D03*
D03*
X526598Y-33654D03*
D03*
X525642Y-29315D03*
D03*
X530720Y-29146D03*
D03*
X534539Y-29181D03*
D03*
G54D28*
X417717Y-126378D03*
Y-120866D03*
X788281Y-81823D03*
G54D29*
Y-266075D03*
M02*
